{
	"asset":{
		"generator":"Khronos glTF Blender I/O v4.4.35",
		"version":"2.0"
	},
	"scene":0,
	"scenes":[
		{
			"name":"Scene",
			"nodes":[
				5
			]
		}
	],
	"nodes":[
		{
			"mesh":0,
			"name":"Door-convcol",
			"translation":[
				0.23930954933166504,
				0.08965420722961426,
				0.1510469913482666
			]
		},
		{
			"mesh":1,
			"name":"Switch1-convcol",
			"translation":[
				-0.15670061111450195,
				0.0016411542892456055,
				0.11868000030517578
			]
		},
		{
			"mesh":2,
			"name":"Switch2-convcol",
			"translation":[
				-0.05087780952453613,
				0.0016411542892456055,
				0.11868000030517578
			]
		},
		{
			"mesh":3,
			"name":"Switch3-convcol",
			"translation":[
				0.05494546890258789,
				0.0016411542892456055,
				0.11868000030517578
			]
		},
		{
			"mesh":4,
			"name":"Switch4-convcol",
			"translation":[
				0.16076898574829102,
				0.0016411542892456055,
				0.11868000030517578
			]
		},
		{
			"children":[
				0,
				1,
				2,
				3,
				4
			],
			"mesh":5,
			"name":"BreakerBase-col"
		}
	],
	"materials":[
		{
			"doubleSided":true,
			"name":"SD",
			"pbrMetallicRoughness":{
				"baseColorTexture":{
					"index":0
				},
				"metallicFactor":0
			}
		},
		{
			"doubleSided":true,
			"name":"HD",
			"pbrMetallicRoughness":{
				"baseColorTexture":{
					"index":1
				},
				"metallicFactor":0
			}
		}
	],
	"meshes":[
		{
			"name":"Cube.048",
			"primitives":[
				{
					"attributes":{
						"POSITION":0,
						"NORMAL":1,
						"TEXCOORD_0":2
					},
					"indices":3,
					"material":0
				}
			]
		},
		{
			"name":"Cube.297",
			"primitives":[
				{
					"attributes":{
						"POSITION":4,
						"NORMAL":5,
						"TEXCOORD_0":6
					},
					"indices":7,
					"material":0
				}
			]
		},
		{
			"name":"Cube.304",
			"primitives":[
				{
					"attributes":{
						"POSITION":8,
						"NORMAL":9,
						"TEXCOORD_0":10
					},
					"indices":7,
					"material":0
				}
			]
		},
		{
			"name":"Cube.305",
			"primitives":[
				{
					"attributes":{
						"POSITION":11,
						"NORMAL":12,
						"TEXCOORD_0":13
					},
					"indices":7,
					"material":0
				}
			]
		},
		{
			"name":"Cube.306",
			"primitives":[
				{
					"attributes":{
						"POSITION":14,
						"NORMAL":15,
						"TEXCOORD_0":16
					},
					"indices":7,
					"material":0
				}
			]
		},
		{
			"name":"Cube.018",
			"primitives":[
				{
					"attributes":{
						"POSITION":17,
						"NORMAL":18,
						"TEXCOORD_0":19
					},
					"indices":20,
					"material":0
				},
				{
					"attributes":{
						"POSITION":21,
						"NORMAL":22,
						"TEXCOORD_0":23
					},
					"indices":24,
					"material":1
				}
			]
		}
	],
	"textures":[
		{
			"sampler":0,
			"source":0
		},
		{
			"sampler":0,
			"source":1
		}
	],
	"images":[
		{
			"mimeType":"image/png",
			"name":"TestureAtlas1",
			"uri":"../../textures/maro_kit/TestureAtlas1.png"
		},
		{
			"mimeType":"image/png",
			"name":"TestureAtlas2",
			"uri":"../../textures/maro_kit/TestureAtlas2.png"
		}
	],
	"accessors":[
		{
			"bufferView":0,
			"componentType":5126,
			"count":184,
			"max":[
				0.014507532119750977,
				0.1114395260810852,
				0.1125733032822609
			],
			"min":[
				-0.49312707781791687,
				-0.2907479405403137,
				-5.707482930716878e-09
			],
			"type":"VEC3"
		},
		{
			"bufferView":1,
			"componentType":5126,
			"count":184,
			"type":"VEC3"
		},
		{
			"bufferView":2,
			"componentType":5126,
			"count":184,
			"type":"VEC2"
		},
		{
			"bufferView":3,
			"componentType":5123,
			"count":324,
			"type":"SCALAR"
		},
		{
			"bufferView":4,
			"componentType":5126,
			"count":48,
			"max":[
				0.015652773901820183,
				0.038268379867076874,
				0.07605359703302383
			],
			"min":[
				-0.015652768313884735,
				-0.03849761188030243,
				0.0065317219123244286
			],
			"type":"VEC3"
		},
		{
			"bufferView":5,
			"componentType":5126,
			"count":48,
			"type":"VEC3"
		},
		{
			"bufferView":6,
			"componentType":5126,
			"count":48,
			"type":"VEC2"
		},
		{
			"bufferView":7,
			"componentType":5123,
			"count":102,
			"type":"SCALAR"
		},
		{
			"bufferView":8,
			"componentType":5126,
			"count":48,
			"max":[
				0.015652773901820183,
				0.038268379867076874,
				0.07605359703302383
			],
			"min":[
				-0.015652768313884735,
				-0.03849761188030243,
				0.0065317219123244286
			],
			"type":"VEC3"
		},
		{
			"bufferView":9,
			"componentType":5126,
			"count":48,
			"type":"VEC3"
		},
		{
			"bufferView":10,
			"componentType":5126,
			"count":48,
			"type":"VEC2"
		},
		{
			"bufferView":11,
			"componentType":5126,
			"count":48,
			"max":[
				0.015652773901820183,
				0.038268379867076874,
				0.07605359703302383
			],
			"min":[
				-0.015652768313884735,
				-0.03849761188030243,
				0.0065317219123244286
			],
			"type":"VEC3"
		},
		{
			"bufferView":12,
			"componentType":5126,
			"count":48,
			"type":"VEC3"
		},
		{
			"bufferView":13,
			"componentType":5126,
			"count":48,
			"type":"VEC2"
		},
		{
			"bufferView":14,
			"componentType":5126,
			"count":48,
			"max":[
				0.015652773901820183,
				0.038268379867076874,
				0.07605359703302383
			],
			"min":[
				-0.015652768313884735,
				-0.03849761188030243,
				0.0065317219123244286
			],
			"type":"VEC3"
		},
		{
			"bufferView":15,
			"componentType":5126,
			"count":48,
			"type":"VEC3"
		},
		{
			"bufferView":16,
			"componentType":5126,
			"count":48,
			"type":"VEC2"
		},
		{
			"bufferView":17,
			"componentType":5126,
			"count":791,
			"max":[
				0.2393098920583725,
				0.9372723698616028,
				0.1750529557466507
			],
			"min":[
				-3.900430917739868,
				-0.1895999312400818,
				-0.015942681580781937
			],
			"type":"VEC3"
		},
		{
			"bufferView":18,
			"componentType":5126,
			"count":791,
			"type":"VEC3"
		},
		{
			"bufferView":19,
			"componentType":5126,
			"count":791,
			"type":"VEC2"
		},
		{
			"bufferView":20,
			"componentType":5123,
			"count":1620,
			"type":"SCALAR"
		},
		{
			"bufferView":21,
			"componentType":5126,
			"count":324,
			"max":[
				0.10228029638528824,
				0.935543954372406,
				0.1103244423866272
			],
			"min":[
				-4.146352291107178,
				0.05726611614227295,
				0.01160720270127058
			],
			"type":"VEC3"
		},
		{
			"bufferView":22,
			"componentType":5126,
			"count":324,
			"type":"VEC3"
		},
		{
			"bufferView":23,
			"componentType":5126,
			"count":324,
			"type":"VEC2"
		},
		{
			"bufferView":24,
			"componentType":5123,
			"count":1536,
			"type":"SCALAR"
		}
	],
	"bufferViews":[
		{
			"buffer":0,
			"byteLength":2208,
			"byteOffset":0,
			"target":34962
		},
		{
			"buffer":0,
			"byteLength":2208,
			"byteOffset":2208,
			"target":34962
		},
		{
			"buffer":0,
			"byteLength":1472,
			"byteOffset":4416,
			"target":34962
		},
		{
			"buffer":0,
			"byteLength":648,
			"byteOffset":5888,
			"target":34963
		},
		{
			"buffer":0,
			"byteLength":576,
			"byteOffset":6536,
			"target":34962
		},
		{
			"buffer":0,
			"byteLength":576,
			"byteOffset":7112,
			"target":34962
		},
		{
			"buffer":0,
			"byteLength":384,
			"byteOffset":7688,
			"target":34962
		},
		{
			"buffer":0,
			"byteLength":204,
			"byteOffset":8072,
			"target":34963
		},
		{
			"buffer":0,
			"byteLength":576,
			"byteOffset":8276,
			"target":34962
		},
		{
			"buffer":0,
			"byteLength":576,
			"byteOffset":8852,
			"target":34962
		},
		{
			"buffer":0,
			"byteLength":384,
			"byteOffset":9428,
			"target":34962
		},
		{
			"buffer":0,
			"byteLength":576,
			"byteOffset":9812,
			"target":34962
		},
		{
			"buffer":0,
			"byteLength":576,
			"byteOffset":10388,
			"target":34962
		},
		{
			"buffer":0,
			"byteLength":384,
			"byteOffset":10964,
			"target":34962
		},
		{
			"buffer":0,
			"byteLength":576,
			"byteOffset":11348,
			"target":34962
		},
		{
			"buffer":0,
			"byteLength":576,
			"byteOffset":11924,
			"target":34962
		},
		{
			"buffer":0,
			"byteLength":384,
			"byteOffset":12500,
			"target":34962
		},
		{
			"buffer":0,
			"byteLength":9492,
			"byteOffset":12884,
			"target":34962
		},
		{
			"buffer":0,
			"byteLength":9492,
			"byteOffset":22376,
			"target":34962
		},
		{
			"buffer":0,
			"byteLength":6328,
			"byteOffset":31868,
			"target":34962
		},
		{
			"buffer":0,
			"byteLength":3240,
			"byteOffset":38196,
			"target":34963
		},
		{
			"buffer":0,
			"byteLength":3888,
			"byteOffset":41436,
			"target":34962
		},
		{
			"buffer":0,
			"byteLength":3888,
			"byteOffset":45324,
			"target":34962
		},
		{
			"buffer":0,
			"byteLength":2592,
			"byteOffset":49212,
			"target":34962
		},
		{
			"buffer":0,
			"byteLength":3072,
			"byteOffset":51804,
			"target":34963
		}
	],
	"samplers":[
		{
			"magFilter":9728,
			"minFilter":9984
		}
	],
	"buffers":[
		{
			"byteLength":54876,
			"uri":"Breakers.bin"
		}
	]
}
