{
	"asset":{
		"generator":"Khronos glTF Blender I/O v4.4.35",
		"version":"2.0"
	},
	"scene":0,
	"scenes":[
		{
			"name":"Scene",
			"nodes":[
				2,
				3
			]
		}
	],
	"nodes":[
		{
			"mesh":0,
			"name":"DoorL",
			"rotation":[
				0,
				-0.023322923108935356,
				0,
				0.9997280836105347
			],
			"translation":[
				0.7456607818603516,
				0.9733380079269409,
				-0.2530110478401184
			]
		},
		{
			"mesh":1,
			"name":"DoorR",
			"translation":[
				-0.7554523944854736,
				0.9576189517974854,
				-0.2530112862586975
			]
		},
		{
			"children":[
				0,
				1
			],
			"mesh":2,
			"name":"Closet"
		},
		{
			"mesh":3,
			"name":"Collider-convcolonly",
			"translation":[
				-0.19073486328125,
				0.9757019281387329,
				0.7469890117645264
			]
		}
	],
	"animations":[
		{
			"channels":[
				{
					"sampler":0,
					"target":{
						"node":0,
						"path":"translation"
					}
				},
				{
					"sampler":1,
					"target":{
						"node":0,
						"path":"rotation"
					}
				},
				{
					"sampler":2,
					"target":{
						"node":0,
						"path":"scale"
					}
				}
			],
			"name":"ClosedOpenL",
			"samplers":[
				{
					"input":16,
					"interpolation":"STEP",
					"output":17
				},
				{
					"input":18,
					"interpolation":"LINEAR",
					"output":19
				},
				{
					"input":16,
					"interpolation":"STEP",
					"output":20
				}
			]
		},
		{
			"channels":[
				{
					"sampler":0,
					"target":{
						"node":1,
						"path":"translation"
					}
				},
				{
					"sampler":1,
					"target":{
						"node":1,
						"path":"rotation"
					}
				},
				{
					"sampler":2,
					"target":{
						"node":1,
						"path":"scale"
					}
				}
			],
			"name":"ClosedOpenR",
			"samplers":[
				{
					"input":16,
					"interpolation":"STEP",
					"output":21
				},
				{
					"input":18,
					"interpolation":"LINEAR",
					"output":22
				},
				{
					"input":16,
					"interpolation":"STEP",
					"output":23
				}
			]
		}
	],
	"materials":[
		{
			"doubleSided":true,
			"name":"SD",
			"pbrMetallicRoughness":{
				"baseColorTexture":{
					"index":0
				},
				"metallicFactor":0
			}
		}
	],
	"meshes":[
		{
			"name":"Cube.041",
			"primitives":[
				{
					"attributes":{
						"POSITION":0,
						"NORMAL":1,
						"TEXCOORD_0":2
					},
					"indices":3,
					"material":0
				}
			]
		},
		{
			"name":"Cube.043",
			"primitives":[
				{
					"attributes":{
						"POSITION":4,
						"NORMAL":5,
						"TEXCOORD_0":6
					},
					"indices":7,
					"material":0
				}
			]
		},
		{
			"name":"Cube.040",
			"primitives":[
				{
					"attributes":{
						"POSITION":8,
						"NORMAL":9,
						"TEXCOORD_0":10
					},
					"indices":11,
					"material":0
				}
			]
		},
		{
			"name":"Cube",
			"primitives":[
				{
					"attributes":{
						"POSITION":12,
						"NORMAL":13,
						"TEXCOORD_0":14
					},
					"indices":15
				}
			]
		}
	],
	"textures":[
		{
			"sampler":0,
			"source":0
		}
	],
	"images":[
		{
			"mimeType":"image/png",
			"name":"TestureAtlas1",
			"uri":"../../textures/maro_kit/TestureAtlas1.png"
		}
	],
	"accessors":[
		{
			"bufferView":0,
			"componentType":5126,
			"count":80,
			"max":[
				0.0027894973754882812,
				0.9507205486297607,
				-5.960464477539063e-08
			],
			"min":[
				-0.7274438738822937,
				-0.9313510656356812,
				-0.11971192806959152
			],
			"type":"VEC3"
		},
		{
			"bufferView":1,
			"componentType":5126,
			"count":80,
			"type":"VEC3"
		},
		{
			"bufferView":2,
			"componentType":5126,
			"count":80,
			"type":"VEC2"
		},
		{
			"bufferView":3,
			"componentType":5123,
			"count":120,
			"type":"SCALAR"
		},
		{
			"bufferView":4,
			"componentType":5126,
			"count":78,
			"max":[
				0.7372354865074158,
				0.9267048239707947,
				1.7881393432617188e-07
			],
			"min":[
				-0.006169319152832031,
				-0.9179484844207764,
				-0.11371849477291107
			],
			"type":"VEC3"
		},
		{
			"bufferView":5,
			"componentType":5126,
			"count":78,
			"type":"VEC3"
		},
		{
			"bufferView":6,
			"componentType":5126,
			"count":78,
			"type":"VEC2"
		},
		{
			"bufferView":7,
			"componentType":5123,
			"count":120,
			"type":"SCALAR"
		},
		{
			"bufferView":8,
			"componentType":5126,
			"count":104,
			"max":[
				0.800000011920929,
				1.9322723150253296,
				0.2530110478401184
			],
			"min":[
				-0.800000011920929,
				0,
				-0.25301098823547363
			],
			"type":"VEC3"
		},
		{
			"bufferView":9,
			"componentType":5126,
			"count":104,
			"type":"VEC3"
		},
		{
			"bufferView":10,
			"componentType":5126,
			"count":104,
			"type":"VEC2"
		},
		{
			"bufferView":11,
			"componentType":5123,
			"count":168,
			"type":"SCALAR"
		},
		{
			"bufferView":12,
			"componentType":5126,
			"count":24,
			"max":[
				0.990734875202179,
				0.9565703868865967,
				-0.49397802352905273
			],
			"min":[
				-0.609265148639679,
				-0.9757019281387329,
				-1
			],
			"type":"VEC3"
		},
		{
			"bufferView":13,
			"componentType":5126,
			"count":24,
			"type":"VEC3"
		},
		{
			"bufferView":14,
			"componentType":5126,
			"count":24,
			"type":"VEC2"
		},
		{
			"bufferView":15,
			"componentType":5123,
			"count":36,
			"type":"SCALAR"
		},
		{
			"bufferView":16,
			"componentType":5126,
			"count":2,
			"max":[
				0.5416666666666666
			],
			"min":[
				0
			],
			"type":"SCALAR"
		},
		{
			"bufferView":17,
			"componentType":5126,
			"count":2,
			"type":"VEC3"
		},
		{
			"bufferView":18,
			"componentType":5126,
			"count":14,
			"max":[
				0.5416666666666666
			],
			"min":[
				0
			],
			"type":"SCALAR"
		},
		{
			"bufferView":19,
			"componentType":5126,
			"count":14,
			"type":"VEC4"
		},
		{
			"bufferView":20,
			"componentType":5126,
			"count":2,
			"type":"VEC3"
		},
		{
			"bufferView":21,
			"componentType":5126,
			"count":2,
			"type":"VEC3"
		},
		{
			"bufferView":22,
			"componentType":5126,
			"count":14,
			"type":"VEC4"
		},
		{
			"bufferView":23,
			"componentType":5126,
			"count":2,
			"type":"VEC3"
		}
	],
	"bufferViews":[
		{
			"buffer":0,
			"byteLength":960,
			"byteOffset":0,
			"target":34962
		},
		{
			"buffer":0,
			"byteLength":960,
			"byteOffset":960,
			"target":34962
		},
		{
			"buffer":0,
			"byteLength":640,
			"byteOffset":1920,
			"target":34962
		},
		{
			"buffer":0,
			"byteLength":240,
			"byteOffset":2560,
			"target":34963
		},
		{
			"buffer":0,
			"byteLength":936,
			"byteOffset":2800,
			"target":34962
		},
		{
			"buffer":0,
			"byteLength":936,
			"byteOffset":3736,
			"target":34962
		},
		{
			"buffer":0,
			"byteLength":624,
			"byteOffset":4672,
			"target":34962
		},
		{
			"buffer":0,
			"byteLength":240,
			"byteOffset":5296,
			"target":34963
		},
		{
			"buffer":0,
			"byteLength":1248,
			"byteOffset":5536,
			"target":34962
		},
		{
			"buffer":0,
			"byteLength":1248,
			"byteOffset":6784,
			"target":34962
		},
		{
			"buffer":0,
			"byteLength":832,
			"byteOffset":8032,
			"target":34962
		},
		{
			"buffer":0,
			"byteLength":336,
			"byteOffset":8864,
			"target":34963
		},
		{
			"buffer":0,
			"byteLength":288,
			"byteOffset":9200,
			"target":34962
		},
		{
			"buffer":0,
			"byteLength":288,
			"byteOffset":9488,
			"target":34962
		},
		{
			"buffer":0,
			"byteLength":192,
			"byteOffset":9776,
			"target":34962
		},
		{
			"buffer":0,
			"byteLength":72,
			"byteOffset":9968,
			"target":34963
		},
		{
			"buffer":0,
			"byteLength":8,
			"byteOffset":10040
		},
		{
			"buffer":0,
			"byteLength":24,
			"byteOffset":10048
		},
		{
			"buffer":0,
			"byteLength":56,
			"byteOffset":10072
		},
		{
			"buffer":0,
			"byteLength":224,
			"byteOffset":10128
		},
		{
			"buffer":0,
			"byteLength":24,
			"byteOffset":10352
		},
		{
			"buffer":0,
			"byteLength":24,
			"byteOffset":10376
		},
		{
			"buffer":0,
			"byteLength":224,
			"byteOffset":10400
		},
		{
			"buffer":0,
			"byteLength":24,
			"byteOffset":10624
		}
	],
	"samplers":[
		{
			"magFilter":9728,
			"minFilter":9984
		}
	],
	"buffers":[
		{
			"byteLength":10648,
			"uri":"Closet.bin"
		}
	]
}
