{
	"asset":{
		"generator":"Khronos glTF Blender I/O v4.4.35",
		"version":"2.0"
	},
	"scene":0,
	"scenes":[
		{
			"name":"Scene",
			"nodes":[
				0
			]
		}
	],
	"nodes":[
		{
			"mesh":0,
			"name":"ClosetInside"
		}
	],
	"materials":[
		{
			"doubleSided":true,
			"name":"HD",
			"pbrMetallicRoughness":{
				"baseColorTexture":{
					"index":0
				},
				"metallicFactor":0
			}
		}
	],
	"meshes":[
		{
			"name":"Cube.047",
			"primitives":[
				{
					"attributes":{
						"POSITION":0,
						"NORMAL":1,
						"TEXCOORD_0":2
					},
					"indices":3,
					"material":0
				}
			]
		}
	],
	"textures":[
		{
			"sampler":0,
			"source":0
		}
	],
	"images":[
		{
			"mimeType":"image/png",
			"name":"TestureAtlas2",
			"uri":"../../textures/maro_kit/TestureAtlas2.png"
		}
	],
	"accessors":[
		{
			"bufferView":0,
			"componentType":5126,
			"count":3650,
			"max":[
				0.7704257965087891,
				1.6298482418060303,
				0.22912076115608215
			],
			"min":[
				-0.7323203682899475,
				0.42948707938194275,
				-0.17518417537212372
			],
			"type":"VEC3"
		},
		{
			"bufferView":1,
			"componentType":5126,
			"count":3650,
			"type":"VEC3"
		},
		{
			"bufferView":2,
			"componentType":5126,
			"count":3650,
			"type":"VEC2"
		},
		{
			"bufferView":3,
			"componentType":5123,
			"count":9792,
			"type":"SCALAR"
		}
	],
	"bufferViews":[
		{
			"buffer":0,
			"byteLength":43800,
			"byteOffset":0,
			"target":34962
		},
		{
			"buffer":0,
			"byteLength":43800,
			"byteOffset":43800,
			"target":34962
		},
		{
			"buffer":0,
			"byteLength":29200,
			"byteOffset":87600,
			"target":34962
		},
		{
			"buffer":0,
			"byteLength":19584,
			"byteOffset":116800,
			"target":34963
		}
	],
	"samplers":[
		{
			"magFilter":9728,
			"minFilter":9984
		}
	],
	"buffers":[
		{
			"byteLength":136384,
			"uri":"ClosetInside.bin"
		}
	]
}
