{
	"asset":{
		"generator":"Khronos glTF Blender I/O v4.4.35",
		"version":"2.0"
	},
	"scene":0,
	"scenes":[
		{
			"name":"Scene",
			"nodes":[
				2
			]
		}
	],
	"nodes":[
		{
			"mesh":0,
			"name":"DoorL",
			"rotation":[
				0,
				-0.023322923108935356,
				0,
				0.9997280836105347
			],
			"translation":[
				0.7456607818603516,
				0.9733380079269409,
				-0.2530110478401184
			]
		},
		{
			"mesh":1,
			"name":"DoorR",
			"translation":[
				-0.7554523944854736,
				0.9576189517974854,
				-0.2530112862586975
			]
		},
		{
			"children":[
				0,
				1
			],
			"mesh":2,
			"name":"Closet-col"
		}
	],
	"materials":[
		{
			"doubleSided":true,
			"name":"SD",
			"pbrMetallicRoughness":{
				"baseColorTexture":{
					"index":0
				},
				"metallicFactor":0
			}
		}
	],
	"meshes":[
		{
			"name":"Cube.041",
			"primitives":[
				{
					"attributes":{
						"POSITION":0,
						"NORMAL":1,
						"TEXCOORD_0":2
					},
					"indices":3,
					"material":0
				}
			]
		},
		{
			"name":"Cube.043",
			"primitives":[
				{
					"attributes":{
						"POSITION":4,
						"NORMAL":5,
						"TEXCOORD_0":6
					},
					"indices":7,
					"material":0
				}
			]
		},
		{
			"name":"Cube.040",
			"primitives":[
				{
					"attributes":{
						"POSITION":8,
						"NORMAL":9,
						"TEXCOORD_0":10
					},
					"indices":11,
					"material":0
				}
			]
		}
	],
	"textures":[
		{
			"sampler":0,
			"source":0
		}
	],
	"images":[
		{
			"mimeType":"image/png",
			"name":"TestureAtlas1",
			"uri":"../../textures/maro_kit/TestureAtlas1.png"
		}
	],
	"accessors":[
		{
			"bufferView":0,
			"componentType":5126,
			"count":80,
			"max":[
				0.0027894973754882812,
				0.9507205486297607,
				-5.960464477539063e-08
			],
			"min":[
				-0.7274438738822937,
				-0.9313510656356812,
				-0.11971192806959152
			],
			"type":"VEC3"
		},
		{
			"bufferView":1,
			"componentType":5126,
			"count":80,
			"type":"VEC3"
		},
		{
			"bufferView":2,
			"componentType":5126,
			"count":80,
			"type":"VEC2"
		},
		{
			"bufferView":3,
			"componentType":5123,
			"count":120,
			"type":"SCALAR"
		},
		{
			"bufferView":4,
			"componentType":5126,
			"count":78,
			"max":[
				0.7372354865074158,
				0.9267048239707947,
				1.7881393432617188e-07
			],
			"min":[
				-0.006169319152832031,
				-0.9179484844207764,
				-0.11371849477291107
			],
			"type":"VEC3"
		},
		{
			"bufferView":5,
			"componentType":5126,
			"count":78,
			"type":"VEC3"
		},
		{
			"bufferView":6,
			"componentType":5126,
			"count":78,
			"type":"VEC2"
		},
		{
			"bufferView":7,
			"componentType":5123,
			"count":120,
			"type":"SCALAR"
		},
		{
			"bufferView":8,
			"componentType":5126,
			"count":104,
			"max":[
				0.800000011920929,
				1.9322723150253296,
				0.2530110478401184
			],
			"min":[
				-0.800000011920929,
				0,
				-0.25301098823547363
			],
			"type":"VEC3"
		},
		{
			"bufferView":9,
			"componentType":5126,
			"count":104,
			"type":"VEC3"
		},
		{
			"bufferView":10,
			"componentType":5126,
			"count":104,
			"type":"VEC2"
		},
		{
			"bufferView":11,
			"componentType":5123,
			"count":168,
			"type":"SCALAR"
		}
	],
	"bufferViews":[
		{
			"buffer":0,
			"byteLength":960,
			"byteOffset":0,
			"target":34962
		},
		{
			"buffer":0,
			"byteLength":960,
			"byteOffset":960,
			"target":34962
		},
		{
			"buffer":0,
			"byteLength":640,
			"byteOffset":1920,
			"target":34962
		},
		{
			"buffer":0,
			"byteLength":240,
			"byteOffset":2560,
			"target":34963
		},
		{
			"buffer":0,
			"byteLength":936,
			"byteOffset":2800,
			"target":34962
		},
		{
			"buffer":0,
			"byteLength":936,
			"byteOffset":3736,
			"target":34962
		},
		{
			"buffer":0,
			"byteLength":624,
			"byteOffset":4672,
			"target":34962
		},
		{
			"buffer":0,
			"byteLength":240,
			"byteOffset":5296,
			"target":34963
		},
		{
			"buffer":0,
			"byteLength":1248,
			"byteOffset":5536,
			"target":34962
		},
		{
			"buffer":0,
			"byteLength":1248,
			"byteOffset":6784,
			"target":34962
		},
		{
			"buffer":0,
			"byteLength":832,
			"byteOffset":8032,
			"target":34962
		},
		{
			"buffer":0,
			"byteLength":336,
			"byteOffset":8864,
			"target":34963
		}
	],
	"samplers":[
		{
			"magFilter":9728,
			"minFilter":9984
		}
	],
	"buffers":[
		{
			"byteLength":9200,
			"uri":"Closet.bin"
		}
	]
}
