{
	"asset":{
		"generator":"Khronos glTF Blender I/O v4.4.35",
		"version":"2.0"
	},
	"scene":0,
	"scenes":[
		{
			"name":"Scene",
			"nodes":[
				2
			]
		}
	],
	"nodes":[
		{
			"mesh":0,
			"name":"Fridge.001-convcol",
			"translation":[
				0.3476787805557251,
				0.48601239919662476,
				0.3476790189743042
			]
		},
		{
			"mesh":1,
			"name":"Fridge.002-convcol",
			"translation":[
				0.3476787805557251,
				1.2626023292541504,
				0.3476790189743042
			]
		},
		{
			"children":[
				0,
				1
			],
			"mesh":2,
			"name":"Fridge"
		}
	],
	"animations":[
		{
			"channels":[
				{
					"sampler":0,
					"target":{
						"node":0,
						"path":"translation"
					}
				},
				{
					"sampler":1,
					"target":{
						"node":0,
						"path":"rotation"
					}
				},
				{
					"sampler":2,
					"target":{
						"node":0,
						"path":"scale"
					}
				}
			],
			"name":"FridgeBottomDoor",
			"samplers":[
				{
					"input":20,
					"interpolation":"STEP",
					"output":21
				},
				{
					"input":22,
					"interpolation":"LINEAR",
					"output":23
				},
				{
					"input":20,
					"interpolation":"STEP",
					"output":24
				}
			]
		},
		{
			"channels":[
				{
					"sampler":0,
					"target":{
						"node":1,
						"path":"translation"
					}
				},
				{
					"sampler":1,
					"target":{
						"node":1,
						"path":"rotation"
					}
				},
				{
					"sampler":2,
					"target":{
						"node":1,
						"path":"scale"
					}
				}
			],
			"name":"FridgeTopDoor",
			"samplers":[
				{
					"input":25,
					"interpolation":"STEP",
					"output":26
				},
				{
					"input":27,
					"interpolation":"LINEAR",
					"output":28
				},
				{
					"input":25,
					"interpolation":"STEP",
					"output":29
				}
			]
		}
	],
	"materials":[
		{
			"doubleSided":true,
			"name":"HD",
			"pbrMetallicRoughness":{
				"baseColorTexture":{
					"index":0
				},
				"metallicFactor":0
			}
		},
		{
			"doubleSided":true,
			"name":"SD",
			"pbrMetallicRoughness":{
				"baseColorTexture":{
					"index":1
				},
				"metallicFactor":0
			}
		}
	],
	"meshes":[
		{
			"name":"Cube.003",
			"primitives":[
				{
					"attributes":{
						"POSITION":0,
						"NORMAL":1,
						"TEXCOORD_0":2
					},
					"indices":3,
					"material":0
				},
				{
					"attributes":{
						"POSITION":4,
						"NORMAL":5,
						"TEXCOORD_0":6
					},
					"indices":7,
					"material":1
				}
			]
		},
		{
			"name":"Cube.004",
			"primitives":[
				{
					"attributes":{
						"POSITION":8,
						"NORMAL":9,
						"TEXCOORD_0":10
					},
					"indices":11,
					"material":1
				}
			]
		},
		{
			"name":"Cube.001",
			"primitives":[
				{
					"attributes":{
						"POSITION":12,
						"NORMAL":13,
						"TEXCOORD_0":14
					},
					"indices":15,
					"material":0
				},
				{
					"attributes":{
						"POSITION":16,
						"NORMAL":17,
						"TEXCOORD_0":18
					},
					"indices":19,
					"material":1
				}
			]
		}
	],
	"textures":[
		{
			"sampler":0,
			"source":0
		},
		{
			"sampler":0,
			"source":1
		}
	],
	"images":[
		{
			"mimeType":"image/png",
			"name":"TestureAtlas2",
			"uri":"../../textures/maro_kit/TestureAtlas2.png"
		},
		{
			"mimeType":"image/png",
			"name":"TestureAtlas1",
			"uri":"../../textures/maro_kit/TestureAtlas1.png"
		}
	],
	"accessors":[
		{
			"bufferView":0,
			"componentType":5126,
			"count":402,
			"max":[
				-0.10662929713726044,
				0.09164759516716003,
				0.027362540364265442
			],
			"min":[
				-0.620369017124176,
				-0.17180293798446655,
				-0.055837348103523254
			],
			"type":"VEC3"
		},
		{
			"bufferView":1,
			"componentType":5126,
			"count":402,
			"type":"VEC3"
		},
		{
			"bufferView":2,
			"componentType":5126,
			"count":402,
			"type":"VEC2"
		},
		{
			"bufferView":3,
			"componentType":5123,
			"count":1296,
			"type":"SCALAR"
		},
		{
			"bufferView":4,
			"componentType":5126,
			"count":148,
			"max":[
				0,
				0.49833428859710693,
				0.09272146224975586
			],
			"min":[
				-0.6953577995300293,
				-0.48601236939430237,
				-0.07281415909528732
			],
			"type":"VEC3"
		},
		{
			"bufferView":5,
			"componentType":5126,
			"count":148,
			"type":"VEC3"
		},
		{
			"bufferView":6,
			"componentType":5126,
			"count":148,
			"type":"VEC2"
		},
		{
			"bufferView":7,
			"componentType":5123,
			"count":252,
			"type":"SCALAR"
		},
		{
			"bufferView":8,
			"componentType":5126,
			"count":110,
			"max":[
				0,
				0.2782555818557739,
				0.09272170066833496
			],
			"min":[
				-0.6953577995300293,
				-0.2782555818557739,
				-0.07281415909528732
			],
			"type":"VEC3"
		},
		{
			"bufferView":9,
			"componentType":5126,
			"count":110,
			"type":"VEC3"
		},
		{
			"bufferView":10,
			"componentType":5126,
			"count":110,
			"type":"VEC2"
		},
		{
			"bufferView":11,
			"componentType":5123,
			"count":174,
			"type":"SCALAR"
		},
		{
			"bufferView":12,
			"componentType":5126,
			"count":1534,
			"max":[
				0.2861559987068176,
				1.1573729515075684,
				0.2716865539550781
			],
			"min":[
				-0.30271947383880615,
				0.2826087474822998,
				-0.14540447294712067
			],
			"type":"VEC3"
		},
		{
			"bufferView":13,
			"componentType":5126,
			"count":1534,
			"type":"VEC3"
		},
		{
			"bufferView":14,
			"componentType":5126,
			"count":1534,
			"type":"VEC2"
		},
		{
			"bufferView":15,
			"componentType":5123,
			"count":5520,
			"type":"SCALAR"
		},
		{
			"bufferView":16,
			"componentType":5126,
			"count":132,
			"max":[
				0.3476790189743042,
				1.5408577919006348,
				0.3476790189743042
			],
			"min":[
				-0.3476790189743042,
				0,
				-0.3476790189743042
			],
			"type":"VEC3"
		},
		{
			"bufferView":17,
			"componentType":5126,
			"count":132,
			"type":"VEC3"
		},
		{
			"bufferView":18,
			"componentType":5126,
			"count":132,
			"type":"VEC2"
		},
		{
			"bufferView":19,
			"componentType":5123,
			"count":234,
			"type":"SCALAR"
		},
		{
			"bufferView":20,
			"componentType":5126,
			"count":2,
			"max":[
				0.8333333333333334
			],
			"min":[
				0
			],
			"type":"SCALAR"
		},
		{
			"bufferView":21,
			"componentType":5126,
			"count":2,
			"type":"VEC3"
		},
		{
			"bufferView":22,
			"componentType":5126,
			"count":21,
			"max":[
				0.8333333333333334
			],
			"min":[
				0
			],
			"type":"SCALAR"
		},
		{
			"bufferView":23,
			"componentType":5126,
			"count":21,
			"type":"VEC4"
		},
		{
			"bufferView":24,
			"componentType":5126,
			"count":2,
			"type":"VEC3"
		},
		{
			"bufferView":25,
			"componentType":5126,
			"count":2,
			"max":[
				0.625
			],
			"min":[
				0
			],
			"type":"SCALAR"
		},
		{
			"bufferView":26,
			"componentType":5126,
			"count":2,
			"type":"VEC3"
		},
		{
			"bufferView":27,
			"componentType":5126,
			"count":16,
			"max":[
				0.625
			],
			"min":[
				0
			],
			"type":"SCALAR"
		},
		{
			"bufferView":28,
			"componentType":5126,
			"count":16,
			"type":"VEC4"
		},
		{
			"bufferView":29,
			"componentType":5126,
			"count":2,
			"type":"VEC3"
		}
	],
	"bufferViews":[
		{
			"buffer":0,
			"byteLength":4824,
			"byteOffset":0,
			"target":34962
		},
		{
			"buffer":0,
			"byteLength":4824,
			"byteOffset":4824,
			"target":34962
		},
		{
			"buffer":0,
			"byteLength":3216,
			"byteOffset":9648,
			"target":34962
		},
		{
			"buffer":0,
			"byteLength":2592,
			"byteOffset":12864,
			"target":34963
		},
		{
			"buffer":0,
			"byteLength":1776,
			"byteOffset":15456,
			"target":34962
		},
		{
			"buffer":0,
			"byteLength":1776,
			"byteOffset":17232,
			"target":34962
		},
		{
			"buffer":0,
			"byteLength":1184,
			"byteOffset":19008,
			"target":34962
		},
		{
			"buffer":0,
			"byteLength":504,
			"byteOffset":20192,
			"target":34963
		},
		{
			"buffer":0,
			"byteLength":1320,
			"byteOffset":20696,
			"target":34962
		},
		{
			"buffer":0,
			"byteLength":1320,
			"byteOffset":22016,
			"target":34962
		},
		{
			"buffer":0,
			"byteLength":880,
			"byteOffset":23336,
			"target":34962
		},
		{
			"buffer":0,
			"byteLength":348,
			"byteOffset":24216,
			"target":34963
		},
		{
			"buffer":0,
			"byteLength":18408,
			"byteOffset":24564,
			"target":34962
		},
		{
			"buffer":0,
			"byteLength":18408,
			"byteOffset":42972,
			"target":34962
		},
		{
			"buffer":0,
			"byteLength":12272,
			"byteOffset":61380,
			"target":34962
		},
		{
			"buffer":0,
			"byteLength":11040,
			"byteOffset":73652,
			"target":34963
		},
		{
			"buffer":0,
			"byteLength":1584,
			"byteOffset":84692,
			"target":34962
		},
		{
			"buffer":0,
			"byteLength":1584,
			"byteOffset":86276,
			"target":34962
		},
		{
			"buffer":0,
			"byteLength":1056,
			"byteOffset":87860,
			"target":34962
		},
		{
			"buffer":0,
			"byteLength":468,
			"byteOffset":88916,
			"target":34963
		},
		{
			"buffer":0,
			"byteLength":8,
			"byteOffset":89384
		},
		{
			"buffer":0,
			"byteLength":24,
			"byteOffset":89392
		},
		{
			"buffer":0,
			"byteLength":84,
			"byteOffset":89416
		},
		{
			"buffer":0,
			"byteLength":336,
			"byteOffset":89500
		},
		{
			"buffer":0,
			"byteLength":24,
			"byteOffset":89836
		},
		{
			"buffer":0,
			"byteLength":8,
			"byteOffset":89860
		},
		{
			"buffer":0,
			"byteLength":24,
			"byteOffset":89868
		},
		{
			"buffer":0,
			"byteLength":64,
			"byteOffset":89892
		},
		{
			"buffer":0,
			"byteLength":256,
			"byteOffset":89956
		},
		{
			"buffer":0,
			"byteLength":24,
			"byteOffset":90212
		}
	],
	"samplers":[
		{
			"magFilter":9728,
			"minFilter":9984
		}
	],
	"buffers":[
		{
			"byteLength":90236,
			"uri":"Fridge.bin"
		}
	]
}
