{
	"asset":{
		"generator":"Khronos glTF Blender I/O v4.4.35",
		"version":"2.0"
	},
	"scene":0,
	"scenes":[
		{
			"name":"Scene",
			"nodes":[
				1,
				2
			]
		}
	],
	"nodes":[
		{
			"mesh":0,
			"name":"FuraceDoor-convcol",
			"translation":[
				-0.1779797077178955,
				0.665399968624115,
				0.3374027609825134
			]
		},
		{
			"children":[
				0
			],
			"mesh":1,
			"name":"FuraceBase-col"
		},
		{
			"mesh":2,
			"name":"Cylinder",
			"scale":[
				0.2130529284477234,
				0.2130529284477234,
				0.2130529284477234
			],
			"translation":[
				1.085183024406433,
				0.8540567755699158,
				0.280224084854126
			]
		}
	],
	"animations":[
		{
			"channels":[
				{
					"sampler":0,
					"target":{
						"node":0,
						"path":"translation"
					}
				},
				{
					"sampler":1,
					"target":{
						"node":0,
						"path":"rotation"
					}
				},
				{
					"sampler":2,
					"target":{
						"node":0,
						"path":"scale"
					}
				}
			],
			"name":"FurnaceDoorOpen",
			"samplers":[
				{
					"input":12,
					"interpolation":"STEP",
					"output":13
				},
				{
					"input":14,
					"interpolation":"LINEAR",
					"output":15
				},
				{
					"input":12,
					"interpolation":"STEP",
					"output":16
				}
			]
		}
	],
	"materials":[
		{
			"doubleSided":true,
			"name":"SD",
			"pbrMetallicRoughness":{
				"baseColorTexture":{
					"index":0
				},
				"metallicFactor":0
			}
		}
	],
	"meshes":[
		{
			"name":"Cube.012",
			"primitives":[
				{
					"attributes":{
						"POSITION":0,
						"NORMAL":1,
						"TEXCOORD_0":2
					},
					"indices":3,
					"material":0
				}
			]
		},
		{
			"name":"Cylinder.001",
			"primitives":[
				{
					"attributes":{
						"POSITION":4,
						"NORMAL":5,
						"TEXCOORD_0":6
					},
					"indices":7,
					"material":0
				}
			]
		},
		{
			"name":"Cylinder.034",
			"primitives":[
				{
					"attributes":{
						"POSITION":8,
						"NORMAL":9,
						"TEXCOORD_0":10
					},
					"indices":11
				}
			]
		}
	],
	"textures":[
		{
			"sampler":0,
			"source":0
		}
	],
	"images":[
		{
			"mimeType":"image/png",
			"name":"TestureAtlas1",
			"uri":"../../textures/maro_kit/TestureAtlas1.png"
		}
	],
	"accessors":[
		{
			"bufferView":0,
			"componentType":5126,
			"count":222,
			"max":[
				0.35595935583114624,
				0.17797964811325073,
				0.06835255026817322
			],
			"min":[
				5.960464477539063e-08,
				-0.17797964811325073,
				-8.940696716308594e-08
			],
			"type":"VEC3"
		},
		{
			"bufferView":1,
			"componentType":5126,
			"count":222,
			"type":"VEC3"
		},
		{
			"bufferView":2,
			"componentType":5126,
			"count":222,
			"type":"VEC2"
		},
		{
			"bufferView":3,
			"componentType":5123,
			"count":366,
			"type":"SCALAR"
		},
		{
			"bufferView":4,
			"componentType":5126,
			"count":336,
			"max":[
				0.29090389609336853,
				2.3913915157318115,
				0.48329681158065796
			],
			"min":[
				-0.2909040153026581,
				-5.960464477539063e-08,
				-0.6243519186973572
			],
			"type":"VEC3"
		},
		{
			"bufferView":5,
			"componentType":5126,
			"count":336,
			"type":"VEC3"
		},
		{
			"bufferView":6,
			"componentType":5126,
			"count":336,
			"type":"VEC2"
		},
		{
			"bufferView":7,
			"componentType":5123,
			"count":714,
			"type":"SCALAR"
		},
		{
			"bufferView":8,
			"componentType":5126,
			"count":86,
			"max":[
				0.9164524078369141,
				2.51033616065979,
				0.9636150002479553
			],
			"min":[
				-0.9164524078369141,
				-0.5,
				-0.9636150002479553
			],
			"type":"VEC3"
		},
		{
			"bufferView":9,
			"componentType":5126,
			"count":86,
			"type":"VEC3"
		},
		{
			"bufferView":10,
			"componentType":5126,
			"count":86,
			"type":"VEC2"
		},
		{
			"bufferView":11,
			"componentType":5123,
			"count":360,
			"type":"SCALAR"
		},
		{
			"bufferView":12,
			"componentType":5126,
			"count":2,
			"max":[
				0.4166666666666667
			],
			"min":[
				0
			],
			"type":"SCALAR"
		},
		{
			"bufferView":13,
			"componentType":5126,
			"count":2,
			"type":"VEC3"
		},
		{
			"bufferView":14,
			"componentType":5126,
			"count":11,
			"max":[
				0.4166666666666667
			],
			"min":[
				0
			],
			"type":"SCALAR"
		},
		{
			"bufferView":15,
			"componentType":5126,
			"count":11,
			"type":"VEC4"
		},
		{
			"bufferView":16,
			"componentType":5126,
			"count":2,
			"type":"VEC3"
		}
	],
	"bufferViews":[
		{
			"buffer":0,
			"byteLength":2664,
			"byteOffset":0,
			"target":34962
		},
		{
			"buffer":0,
			"byteLength":2664,
			"byteOffset":2664,
			"target":34962
		},
		{
			"buffer":0,
			"byteLength":1776,
			"byteOffset":5328,
			"target":34962
		},
		{
			"buffer":0,
			"byteLength":732,
			"byteOffset":7104,
			"target":34963
		},
		{
			"buffer":0,
			"byteLength":4032,
			"byteOffset":7836,
			"target":34962
		},
		{
			"buffer":0,
			"byteLength":4032,
			"byteOffset":11868,
			"target":34962
		},
		{
			"buffer":0,
			"byteLength":2688,
			"byteOffset":15900,
			"target":34962
		},
		{
			"buffer":0,
			"byteLength":1428,
			"byteOffset":18588,
			"target":34963
		},
		{
			"buffer":0,
			"byteLength":1032,
			"byteOffset":20016,
			"target":34962
		},
		{
			"buffer":0,
			"byteLength":1032,
			"byteOffset":21048,
			"target":34962
		},
		{
			"buffer":0,
			"byteLength":688,
			"byteOffset":22080,
			"target":34962
		},
		{
			"buffer":0,
			"byteLength":720,
			"byteOffset":22768,
			"target":34963
		},
		{
			"buffer":0,
			"byteLength":8,
			"byteOffset":23488
		},
		{
			"buffer":0,
			"byteLength":24,
			"byteOffset":23496
		},
		{
			"buffer":0,
			"byteLength":44,
			"byteOffset":23520
		},
		{
			"buffer":0,
			"byteLength":176,
			"byteOffset":23564
		},
		{
			"buffer":0,
			"byteLength":24,
			"byteOffset":23740
		}
	],
	"samplers":[
		{
			"magFilter":9728,
			"minFilter":9984
		}
	],
	"buffers":[
		{
			"byteLength":23764,
			"uri":"Furace.bin"
		}
	]
}
