{
	"asset":{
		"generator":"Khronos glTF Blender I/O v4.4.35",
		"version":"2.0"
	},
	"scene":0,
	"scenes":[
		{
			"name":"Scene",
			"nodes":[
				3
			]
		}
	],
	"nodes":[
		{
			"mesh":0,
			"name":"Button-convcol",
			"rotation":[
				0,
				0,
				-0.7071068286895752,
				0.7071068286895752
			],
			"scale":[
				0.62412428855896,
				0.62412428855896,
				0.62412428855896
			],
			"translation":[
				0.15354155004024506,
				0.8537169694900513,
				-0.08620557934045792
			]
		},
		{
			"mesh":1,
			"name":"Handle-convcol",
			"translation":[
				0,
				0.865929126739502,
				-0.12283897399902344
			]
		},
		{
			"mesh":2,
			"name":"Vinyl-convcol",
			"translation":[
				0,
				0.9471899271011353,
				0
			]
		},
		{
			"children":[
				0,
				1,
				2
			],
			"mesh":3,
			"name":"Gramophone-col"
		}
	],
	"animations":[
		{
			"channels":[
				{
					"sampler":0,
					"target":{
						"node":0,
						"path":"translation"
					}
				},
				{
					"sampler":1,
					"target":{
						"node":0,
						"path":"rotation"
					}
				},
				{
					"sampler":2,
					"target":{
						"node":0,
						"path":"scale"
					}
				}
			],
			"name":"GramophoneButton",
			"samplers":[
				{
					"input":20,
					"interpolation":"LINEAR",
					"output":21
				},
				{
					"input":22,
					"interpolation":"STEP",
					"output":23
				},
				{
					"input":22,
					"interpolation":"STEP",
					"output":24
				}
			]
		},
		{
			"channels":[
				{
					"sampler":0,
					"target":{
						"node":1,
						"path":"translation"
					}
				},
				{
					"sampler":1,
					"target":{
						"node":1,
						"path":"rotation"
					}
				},
				{
					"sampler":2,
					"target":{
						"node":1,
						"path":"scale"
					}
				}
			],
			"name":"GramophoneHandleSpin",
			"samplers":[
				{
					"input":25,
					"interpolation":"STEP",
					"output":26
				},
				{
					"input":27,
					"interpolation":"LINEAR",
					"output":28
				},
				{
					"input":25,
					"interpolation":"STEP",
					"output":29
				}
			]
		},
		{
			"channels":[
				{
					"sampler":0,
					"target":{
						"node":2,
						"path":"translation"
					}
				},
				{
					"sampler":1,
					"target":{
						"node":2,
						"path":"rotation"
					}
				},
				{
					"sampler":2,
					"target":{
						"node":2,
						"path":"scale"
					}
				}
			],
			"name":"GramophoneRecordSpin",
			"samplers":[
				{
					"input":25,
					"interpolation":"STEP",
					"output":30
				},
				{
					"input":27,
					"interpolation":"LINEAR",
					"output":31
				},
				{
					"input":25,
					"interpolation":"STEP",
					"output":32
				}
			]
		}
	],
	"materials":[
		{
			"doubleSided":true,
			"name":"SD",
			"pbrMetallicRoughness":{
				"baseColorTexture":{
					"index":0
				},
				"metallicFactor":0
			}
		},
		{
			"doubleSided":true,
			"name":"HD",
			"pbrMetallicRoughness":{
				"baseColorTexture":{
					"index":1
				},
				"metallicFactor":0
			}
		}
	],
	"meshes":[
		{
			"name":"Cube.021",
			"primitives":[
				{
					"attributes":{
						"POSITION":0,
						"NORMAL":1,
						"TEXCOORD_0":2
					},
					"indices":3,
					"material":0
				}
			]
		},
		{
			"name":"NurbsPath.016",
			"primitives":[
				{
					"attributes":{
						"POSITION":4,
						"NORMAL":5,
						"TEXCOORD_0":6
					},
					"indices":7,
					"material":0
				}
			]
		},
		{
			"name":"Cylinder.049",
			"primitives":[
				{
					"attributes":{
						"POSITION":8,
						"NORMAL":9,
						"TEXCOORD_0":10
					},
					"indices":11,
					"material":1
				}
			]
		},
		{
			"name":"Cube.313",
			"primitives":[
				{
					"attributes":{
						"POSITION":12,
						"NORMAL":13,
						"TEXCOORD_0":14
					},
					"indices":15,
					"material":1
				},
				{
					"attributes":{
						"POSITION":16,
						"NORMAL":17,
						"TEXCOORD_0":18
					},
					"indices":19,
					"material":0
				}
			]
		}
	],
	"textures":[
		{
			"sampler":0,
			"source":0
		},
		{
			"sampler":0,
			"source":1
		}
	],
	"images":[
		{
			"mimeType":"image/png",
			"name":"TestureAtlas1",
			"uri":"../../textures/maro_kit/TestureAtlas1.png"
		},
		{
			"mimeType":"image/png",
			"name":"TestureAtlas2",
			"uri":"../../textures/maro_kit/TestureAtlas2.png"
		}
	],
	"accessors":[
		{
			"bufferView":0,
			"componentType":5126,
			"count":26,
			"max":[
				0.02421855926513672,
				0.024592101573944092,
				0.02310919761657715
			],
			"min":[
				-0.02421855926513672,
				-5.960464477539063e-08,
				-0.02310919761657715
			],
			"type":"VEC3"
		},
		{
			"bufferView":1,
			"componentType":5126,
			"count":26,
			"type":"VEC3"
		},
		{
			"bufferView":2,
			"componentType":5126,
			"count":26,
			"type":"VEC2"
		},
		{
			"bufferView":3,
			"componentType":5123,
			"count":48,
			"type":"SCALAR"
		},
		{
			"bufferView":4,
			"componentType":5126,
			"count":195,
			"max":[
				0.015160107053816319,
				0.014595231972634792,
				0.00026838138001039624
			],
			"min":[
				-0.015160112641751766,
				-0.0658615380525589,
				-0.17314139008522034
			],
			"type":"VEC3"
		},
		{
			"bufferView":5,
			"componentType":5126,
			"count":195,
			"type":"VEC3"
		},
		{
			"bufferView":6,
			"componentType":5126,
			"count":195,
			"type":"VEC2"
		},
		{
			"bufferView":7,
			"componentType":5123,
			"count":624,
			"type":"SCALAR"
		},
		{
			"bufferView":8,
			"componentType":5126,
			"count":169,
			"max":[
				0.16124321520328522,
				0.011702331714332104,
				0.16130730509757996
			],
			"min":[
				-0.1613757163286209,
				-0.013180187903344631,
				-0.1613273024559021
			],
			"type":"VEC3"
		},
		{
			"bufferView":9,
			"componentType":5126,
			"count":169,
			"type":"VEC3"
		},
		{
			"bufferView":10,
			"componentType":5126,
			"count":169,
			"type":"VEC2"
		},
		{
			"bufferView":11,
			"componentType":5123,
			"count":426,
			"type":"SCALAR"
		},
		{
			"bufferView":12,
			"componentType":5126,
			"count":13,
			"max":[
				0.025094125419855118,
				0.9563285112380981,
				0.11480806767940521
			],
			"min":[
				0.017979927361011505,
				0.9449613690376282,
				0.1076938658952713
			],
			"type":"VEC3"
		},
		{
			"bufferView":13,
			"componentType":5126,
			"count":13,
			"type":"VEC3"
		},
		{
			"bufferView":14,
			"componentType":5126,
			"count":13,
			"type":"VEC2"
		},
		{
			"bufferView":15,
			"componentType":5123,
			"count":36,
			"type":"SCALAR"
		},
		{
			"bufferView":16,
			"componentType":5126,
			"count":628,
			"max":[
				0.27477285265922546,
				1.6070371866226196,
				0.3587433993816376
			],
			"min":[
				-0.2780299782752991,
				-2.9802322387695312e-08,
				-0.29663896560668945
			],
			"type":"VEC3"
		},
		{
			"bufferView":17,
			"componentType":5126,
			"count":628,
			"type":"VEC3"
		},
		{
			"bufferView":18,
			"componentType":5126,
			"count":628,
			"type":"VEC2"
		},
		{
			"bufferView":19,
			"componentType":5123,
			"count":1602,
			"type":"SCALAR"
		},
		{
			"bufferView":20,
			"componentType":5126,
			"count":19,
			"max":[
				0.7916666666666666
			],
			"min":[
				0.041666666666666664
			],
			"type":"SCALAR"
		},
		{
			"bufferView":21,
			"componentType":5126,
			"count":19,
			"type":"VEC3"
		},
		{
			"bufferView":22,
			"componentType":5126,
			"count":2,
			"max":[
				0.7916666666666666
			],
			"min":[
				0.041666666666666664
			],
			"type":"SCALAR"
		},
		{
			"bufferView":23,
			"componentType":5126,
			"count":2,
			"type":"VEC4"
		},
		{
			"bufferView":24,
			"componentType":5126,
			"count":2,
			"type":"VEC3"
		},
		{
			"bufferView":25,
			"componentType":5126,
			"count":2,
			"max":[
				1.6666666666666667
			],
			"min":[
				0
			],
			"type":"SCALAR"
		},
		{
			"bufferView":26,
			"componentType":5126,
			"count":2,
			"type":"VEC3"
		},
		{
			"bufferView":27,
			"componentType":5126,
			"count":41,
			"max":[
				1.6666666666666667
			],
			"min":[
				0
			],
			"type":"SCALAR"
		},
		{
			"bufferView":28,
			"componentType":5126,
			"count":41,
			"type":"VEC4"
		},
		{
			"bufferView":29,
			"componentType":5126,
			"count":2,
			"type":"VEC3"
		},
		{
			"bufferView":30,
			"componentType":5126,
			"count":2,
			"type":"VEC3"
		},
		{
			"bufferView":31,
			"componentType":5126,
			"count":41,
			"type":"VEC4"
		},
		{
			"bufferView":32,
			"componentType":5126,
			"count":2,
			"type":"VEC3"
		}
	],
	"bufferViews":[
		{
			"buffer":0,
			"byteLength":312,
			"byteOffset":0,
			"target":34962
		},
		{
			"buffer":0,
			"byteLength":312,
			"byteOffset":312,
			"target":34962
		},
		{
			"buffer":0,
			"byteLength":208,
			"byteOffset":624,
			"target":34962
		},
		{
			"buffer":0,
			"byteLength":96,
			"byteOffset":832,
			"target":34963
		},
		{
			"buffer":0,
			"byteLength":2340,
			"byteOffset":928,
			"target":34962
		},
		{
			"buffer":0,
			"byteLength":2340,
			"byteOffset":3268,
			"target":34962
		},
		{
			"buffer":0,
			"byteLength":1560,
			"byteOffset":5608,
			"target":34962
		},
		{
			"buffer":0,
			"byteLength":1248,
			"byteOffset":7168,
			"target":34963
		},
		{
			"buffer":0,
			"byteLength":2028,
			"byteOffset":8416,
			"target":34962
		},
		{
			"buffer":0,
			"byteLength":2028,
			"byteOffset":10444,
			"target":34962
		},
		{
			"buffer":0,
			"byteLength":1352,
			"byteOffset":12472,
			"target":34962
		},
		{
			"buffer":0,
			"byteLength":852,
			"byteOffset":13824,
			"target":34963
		},
		{
			"buffer":0,
			"byteLength":156,
			"byteOffset":14676,
			"target":34962
		},
		{
			"buffer":0,
			"byteLength":156,
			"byteOffset":14832,
			"target":34962
		},
		{
			"buffer":0,
			"byteLength":104,
			"byteOffset":14988,
			"target":34962
		},
		{
			"buffer":0,
			"byteLength":72,
			"byteOffset":15092,
			"target":34963
		},
		{
			"buffer":0,
			"byteLength":7536,
			"byteOffset":15164,
			"target":34962
		},
		{
			"buffer":0,
			"byteLength":7536,
			"byteOffset":22700,
			"target":34962
		},
		{
			"buffer":0,
			"byteLength":5024,
			"byteOffset":30236,
			"target":34962
		},
		{
			"buffer":0,
			"byteLength":3204,
			"byteOffset":35260,
			"target":34963
		},
		{
			"buffer":0,
			"byteLength":76,
			"byteOffset":38464
		},
		{
			"buffer":0,
			"byteLength":228,
			"byteOffset":38540
		},
		{
			"buffer":0,
			"byteLength":8,
			"byteOffset":38768
		},
		{
			"buffer":0,
			"byteLength":32,
			"byteOffset":38776
		},
		{
			"buffer":0,
			"byteLength":24,
			"byteOffset":38808
		},
		{
			"buffer":0,
			"byteLength":8,
			"byteOffset":38832
		},
		{
			"buffer":0,
			"byteLength":24,
			"byteOffset":38840
		},
		{
			"buffer":0,
			"byteLength":164,
			"byteOffset":38864
		},
		{
			"buffer":0,
			"byteLength":656,
			"byteOffset":39028
		},
		{
			"buffer":0,
			"byteLength":24,
			"byteOffset":39684
		},
		{
			"buffer":0,
			"byteLength":24,
			"byteOffset":39708
		},
		{
			"buffer":0,
			"byteLength":656,
			"byteOffset":39732
		},
		{
			"buffer":0,
			"byteLength":24,
			"byteOffset":40388
		}
	],
	"samplers":[
		{
			"magFilter":9728,
			"minFilter":9984
		}
	],
	"buffers":[
		{
			"byteLength":40412,
			"uri":"Gramophone.bin"
		}
	]
}
