{
	"asset":{
		"generator":"Khronos glTF Blender I/O v4.4.35",
		"version":"2.0"
	},
	"scene":0,
	"scenes":[
		{
			"name":"Scene",
			"nodes":[
				2
			]
		}
	],
	"nodes":[
		{
			"mesh":0,
			"name":"Handle-convcol",
			"translation":[
				0,
				0.865929126739502,
				-0.12283897399902344
			]
		},
		{
			"mesh":1,
			"name":"Vinyl-convcol",
			"translation":[
				0,
				0.9471899271011353,
				0
			]
		},
		{
			"children":[
				0,
				1
			],
			"mesh":2,
			"name":"Gramophone-col"
		}
	],
	"animations":[
		{
			"channels":[
				{
					"sampler":0,
					"target":{
						"node":0,
						"path":"translation"
					}
				},
				{
					"sampler":1,
					"target":{
						"node":0,
						"path":"rotation"
					}
				},
				{
					"sampler":2,
					"target":{
						"node":0,
						"path":"scale"
					}
				}
			],
			"name":"GramophoneHandleSpin",
			"samplers":[
				{
					"input":16,
					"interpolation":"STEP",
					"output":17
				},
				{
					"input":18,
					"interpolation":"LINEAR",
					"output":19
				},
				{
					"input":16,
					"interpolation":"STEP",
					"output":20
				}
			]
		},
		{
			"channels":[
				{
					"sampler":0,
					"target":{
						"node":1,
						"path":"translation"
					}
				},
				{
					"sampler":1,
					"target":{
						"node":1,
						"path":"rotation"
					}
				},
				{
					"sampler":2,
					"target":{
						"node":1,
						"path":"scale"
					}
				}
			],
			"name":"GramophoneRecordSpin",
			"samplers":[
				{
					"input":16,
					"interpolation":"STEP",
					"output":21
				},
				{
					"input":18,
					"interpolation":"LINEAR",
					"output":22
				},
				{
					"input":16,
					"interpolation":"STEP",
					"output":23
				}
			]
		}
	],
	"materials":[
		{
			"doubleSided":true,
			"name":"SD",
			"pbrMetallicRoughness":{
				"baseColorTexture":{
					"index":0
				},
				"metallicFactor":0
			}
		},
		{
			"doubleSided":true,
			"name":"HD",
			"pbrMetallicRoughness":{
				"baseColorTexture":{
					"index":1
				},
				"metallicFactor":0
			}
		}
	],
	"meshes":[
		{
			"name":"NurbsPath.016",
			"primitives":[
				{
					"attributes":{
						"POSITION":0,
						"NORMAL":1,
						"TEXCOORD_0":2
					},
					"indices":3,
					"material":0
				}
			]
		},
		{
			"name":"Cylinder.049",
			"primitives":[
				{
					"attributes":{
						"POSITION":4,
						"NORMAL":5,
						"TEXCOORD_0":6
					},
					"indices":7,
					"material":1
				}
			]
		},
		{
			"name":"Cube.313",
			"primitives":[
				{
					"attributes":{
						"POSITION":8,
						"NORMAL":9,
						"TEXCOORD_0":10
					},
					"indices":11,
					"material":1
				},
				{
					"attributes":{
						"POSITION":12,
						"NORMAL":13,
						"TEXCOORD_0":14
					},
					"indices":15,
					"material":0
				}
			]
		}
	],
	"textures":[
		{
			"sampler":0,
			"source":0
		},
		{
			"sampler":0,
			"source":1
		}
	],
	"images":[
		{
			"mimeType":"image/png",
			"name":"TestureAtlas1",
			"uri":"../../textures/maro_kit/TestureAtlas1.png"
		},
		{
			"mimeType":"image/png",
			"name":"TestureAtlas2",
			"uri":"../../textures/maro_kit/TestureAtlas2.png"
		}
	],
	"accessors":[
		{
			"bufferView":0,
			"componentType":5126,
			"count":195,
			"max":[
				0.015160107053816319,
				0.014595231972634792,
				0.00026838138001039624
			],
			"min":[
				-0.015160112641751766,
				-0.0658615380525589,
				-0.17314139008522034
			],
			"type":"VEC3"
		},
		{
			"bufferView":1,
			"componentType":5126,
			"count":195,
			"type":"VEC3"
		},
		{
			"bufferView":2,
			"componentType":5126,
			"count":195,
			"type":"VEC2"
		},
		{
			"bufferView":3,
			"componentType":5123,
			"count":624,
			"type":"SCALAR"
		},
		{
			"bufferView":4,
			"componentType":5126,
			"count":169,
			"max":[
				0.16124321520328522,
				0.011702331714332104,
				0.16130730509757996
			],
			"min":[
				-0.1613757163286209,
				-0.013180187903344631,
				-0.1613273024559021
			],
			"type":"VEC3"
		},
		{
			"bufferView":5,
			"componentType":5126,
			"count":169,
			"type":"VEC3"
		},
		{
			"bufferView":6,
			"componentType":5126,
			"count":169,
			"type":"VEC2"
		},
		{
			"bufferView":7,
			"componentType":5123,
			"count":426,
			"type":"SCALAR"
		},
		{
			"bufferView":8,
			"componentType":5126,
			"count":13,
			"max":[
				0.025094125419855118,
				0.9563285112380981,
				0.11480806767940521
			],
			"min":[
				0.017979927361011505,
				0.9449613690376282,
				0.1076938658952713
			],
			"type":"VEC3"
		},
		{
			"bufferView":9,
			"componentType":5126,
			"count":13,
			"type":"VEC3"
		},
		{
			"bufferView":10,
			"componentType":5126,
			"count":13,
			"type":"VEC2"
		},
		{
			"bufferView":11,
			"componentType":5123,
			"count":36,
			"type":"SCALAR"
		},
		{
			"bufferView":12,
			"componentType":5126,
			"count":579,
			"max":[
				0.27477285265922546,
				1.6070371866226196,
				0.3587433993816376
			],
			"min":[
				-0.2780299782752991,
				-2.9802322387695312e-08,
				-0.29663896560668945
			],
			"type":"VEC3"
		},
		{
			"bufferView":13,
			"componentType":5126,
			"count":579,
			"type":"VEC3"
		},
		{
			"bufferView":14,
			"componentType":5126,
			"count":579,
			"type":"VEC2"
		},
		{
			"bufferView":15,
			"componentType":5123,
			"count":1482,
			"type":"SCALAR"
		},
		{
			"bufferView":16,
			"componentType":5126,
			"count":2,
			"max":[
				1.6666666666666667
			],
			"min":[
				0
			],
			"type":"SCALAR"
		},
		{
			"bufferView":17,
			"componentType":5126,
			"count":2,
			"type":"VEC3"
		},
		{
			"bufferView":18,
			"componentType":5126,
			"count":41,
			"max":[
				1.6666666666666667
			],
			"min":[
				0
			],
			"type":"SCALAR"
		},
		{
			"bufferView":19,
			"componentType":5126,
			"count":41,
			"type":"VEC4"
		},
		{
			"bufferView":20,
			"componentType":5126,
			"count":2,
			"type":"VEC3"
		},
		{
			"bufferView":21,
			"componentType":5126,
			"count":2,
			"type":"VEC3"
		},
		{
			"bufferView":22,
			"componentType":5126,
			"count":41,
			"type":"VEC4"
		},
		{
			"bufferView":23,
			"componentType":5126,
			"count":2,
			"type":"VEC3"
		}
	],
	"bufferViews":[
		{
			"buffer":0,
			"byteLength":2340,
			"byteOffset":0,
			"target":34962
		},
		{
			"buffer":0,
			"byteLength":2340,
			"byteOffset":2340,
			"target":34962
		},
		{
			"buffer":0,
			"byteLength":1560,
			"byteOffset":4680,
			"target":34962
		},
		{
			"buffer":0,
			"byteLength":1248,
			"byteOffset":6240,
			"target":34963
		},
		{
			"buffer":0,
			"byteLength":2028,
			"byteOffset":7488,
			"target":34962
		},
		{
			"buffer":0,
			"byteLength":2028,
			"byteOffset":9516,
			"target":34962
		},
		{
			"buffer":0,
			"byteLength":1352,
			"byteOffset":11544,
			"target":34962
		},
		{
			"buffer":0,
			"byteLength":852,
			"byteOffset":12896,
			"target":34963
		},
		{
			"buffer":0,
			"byteLength":156,
			"byteOffset":13748,
			"target":34962
		},
		{
			"buffer":0,
			"byteLength":156,
			"byteOffset":13904,
			"target":34962
		},
		{
			"buffer":0,
			"byteLength":104,
			"byteOffset":14060,
			"target":34962
		},
		{
			"buffer":0,
			"byteLength":72,
			"byteOffset":14164,
			"target":34963
		},
		{
			"buffer":0,
			"byteLength":6948,
			"byteOffset":14236,
			"target":34962
		},
		{
			"buffer":0,
			"byteLength":6948,
			"byteOffset":21184,
			"target":34962
		},
		{
			"buffer":0,
			"byteLength":4632,
			"byteOffset":28132,
			"target":34962
		},
		{
			"buffer":0,
			"byteLength":2964,
			"byteOffset":32764,
			"target":34963
		},
		{
			"buffer":0,
			"byteLength":8,
			"byteOffset":35728
		},
		{
			"buffer":0,
			"byteLength":24,
			"byteOffset":35736
		},
		{
			"buffer":0,
			"byteLength":164,
			"byteOffset":35760
		},
		{
			"buffer":0,
			"byteLength":656,
			"byteOffset":35924
		},
		{
			"buffer":0,
			"byteLength":24,
			"byteOffset":36580
		},
		{
			"buffer":0,
			"byteLength":24,
			"byteOffset":36604
		},
		{
			"buffer":0,
			"byteLength":656,
			"byteOffset":36628
		},
		{
			"buffer":0,
			"byteLength":24,
			"byteOffset":37284
		}
	],
	"samplers":[
		{
			"magFilter":9728,
			"minFilter":9984
		}
	],
	"buffers":[
		{
			"byteLength":37308,
			"uri":"Gramophone.bin"
		}
	]
}
