{
	"asset":{
		"generator":"Khronos glTF Blender I/O v4.4.26",
		"version":"2.0"
	},
	"scene":0,
	"scenes":[
		{
			"name":"Scene",
			"nodes":[
				0,
				1,
				2,
				3,
				4,
				5
			]
		}
	],
	"nodes":[
		{
			"mesh":0,
			"name":"Cube",
			"translation":[
				0.06349444389343262,
				0,
				-0.6547229290008545
			]
		},
		{
			"mesh":1,
			"name":"Cube.003",
			"translation":[
				5.84161376953125,
				0,
				-2.7669034004211426
			]
		},
		{
			"mesh":2,
			"name":"Cube.004",
			"translation":[
				4.125262260437012,
				0.12212199717760086,
				-3.6201376914978027
			]
		},
		{
			"mesh":3,
			"name":"Cube.005",
			"rotation":[
				0,
				-1,
				0,
				1.6292068494294654e-07
			],
			"translation":[
				6.323459625244141,
				-2.3203179836273193,
				-1.917493462562561
			]
		},
		{
			"mesh":4,
			"name":"Map.011",
			"translation":[
				3.6037139892578125,
				-0.011265873908996582,
				-0.09446002542972565
			]
		},
		{
			"mesh":5,
			"name":"Cube.001",
			"rotation":[
				0,
				-1,
				0,
				1.6292068494294654e-07
			],
			"translation":[
				5.570904731750488,
				1.3917649984359741,
				-1.917493462562561
			]
		}
	],
	"materials":[
		{
			"doubleSided":true,
			"name":"HD",
			"pbrMetallicRoughness":{
				"baseColorTexture":{
					"index":0
				},
				"metallicFactor":0
			}
		}
	],
	"meshes":[
		{
			"name":"Cube.024",
			"primitives":[
				{
					"attributes":{
						"POSITION":0,
						"NORMAL":1,
						"TEXCOORD_0":2
					},
					"indices":3,
					"material":0
				}
			]
		},
		{
			"name":"Cube.028",
			"primitives":[
				{
					"attributes":{
						"POSITION":4,
						"NORMAL":5,
						"TEXCOORD_0":6
					},
					"indices":7,
					"material":0
				}
			]
		},
		{
			"name":"Cube.032",
			"primitives":[
				{
					"attributes":{
						"POSITION":8,
						"NORMAL":9,
						"TEXCOORD_0":10
					},
					"indices":11,
					"material":0
				}
			]
		},
		{
			"name":"Cube.035",
			"primitives":[
				{
					"attributes":{
						"POSITION":12,
						"NORMAL":13,
						"TEXCOORD_0":14
					},
					"indices":15,
					"material":0
				}
			]
		},
		{
			"name":"Cube.039",
			"primitives":[
				{
					"attributes":{
						"POSITION":16,
						"NORMAL":17,
						"TEXCOORD_0":18
					},
					"indices":19,
					"material":0
				}
			]
		},
		{
			"name":"Cube.008",
			"primitives":[
				{
					"attributes":{
						"POSITION":20,
						"NORMAL":21,
						"TEXCOORD_0":22
					},
					"indices":15,
					"material":0
				}
			]
		}
	],
	"textures":[
		{
			"sampler":0,
			"source":0
		}
	],
	"images":[
		{
			"mimeType":"image/png",
			"name":"TestureAtlas2",
			"uri":"../../textures/maro_kit/TestureAtlas2.png"
		}
	],
	"accessors":[
		{
			"bufferView":0,
			"componentType":5126,
			"count":86,
			"max":[
				7.210445404052734,
				4.281876564025879,
				4.240089416503906
			],
			"min":[
				0,
				-2.738405466079712,
				-4.240089416503906
			],
			"type":"VEC3"
		},
		{
			"bufferView":1,
			"componentType":5126,
			"count":86,
			"type":"VEC3"
		},
		{
			"bufferView":2,
			"componentType":5126,
			"count":86,
			"type":"VEC2"
		},
		{
			"bufferView":3,
			"componentType":5123,
			"count":174,
			"type":"SCALAR"
		},
		{
			"bufferView":4,
			"componentType":5126,
			"count":16,
			"max":[
				1.4323257207870483,
				4.281876564025879,
				0.09230419993400574
			],
			"min":[
				-1.83847177028656,
				-2.635188579559326,
				-0.09230419993400574
			],
			"type":"VEC3"
		},
		{
			"bufferView":5,
			"componentType":5126,
			"count":16,
			"type":"VEC3"
		},
		{
			"bufferView":6,
			"componentType":5126,
			"count":16,
			"type":"VEC2"
		},
		{
			"bufferView":7,
			"componentType":5123,
			"count":24,
			"type":"SCALAR"
		},
		{
			"bufferView":8,
			"componentType":5126,
			"count":96,
			"max":[
				1.3433421850204468,
				1.3433420658111572,
				0.7609301209449768
			],
			"min":[
				-0.12212182581424713,
				-0.12212199717760086,
				-0.5620409250259399
			],
			"type":"VEC3"
		},
		{
			"bufferView":9,
			"componentType":5126,
			"count":96,
			"type":"VEC3"
		},
		{
			"bufferView":10,
			"componentType":5126,
			"count":96,
			"type":"VEC2"
		},
		{
			"bufferView":11,
			"componentType":5123,
			"count":144,
			"type":"SCALAR"
		},
		{
			"bufferView":12,
			"componentType":5126,
			"count":160,
			"max":[
				2.3203182220458984,
				2.3203179836273193,
				0.7609301209449768
			],
			"min":[
				-0.12212182581424713,
				-0.12212199717760086,
				-0.5620409250259399
			],
			"type":"VEC3"
		},
		{
			"bufferView":13,
			"componentType":5126,
			"count":160,
			"type":"VEC3"
		},
		{
			"bufferView":14,
			"componentType":5126,
			"count":160,
			"type":"VEC2"
		},
		{
			"bufferView":15,
			"componentType":5123,
			"count":240,
			"type":"SCALAR"
		},
		{
			"bufferView":16,
			"componentType":5126,
			"count":20,
			"max":[
				0.3045358657836914,
				0.02727067470550537,
				0.4361443519592285
			],
			"min":[
				-0.3045358657836914,
				-0.02727067470550537,
				-0.4361443519592285
			],
			"type":"VEC3"
		},
		{
			"bufferView":17,
			"componentType":5126,
			"count":20,
			"type":"VEC3"
		},
		{
			"bufferView":18,
			"componentType":5126,
			"count":20,
			"type":"VEC2"
		},
		{
			"bufferView":19,
			"componentType":5123,
			"count":30,
			"type":"SCALAR"
		},
		{
			"bufferView":20,
			"componentType":5126,
			"count":160,
			"max":[
				2.3203182220458984,
				2.3203179836273193,
				0.7609301209449768
			],
			"min":[
				-0.12212182581424713,
				-0.12212199717760086,
				-0.5620409250259399
			],
			"type":"VEC3"
		},
		{
			"bufferView":21,
			"componentType":5126,
			"count":160,
			"type":"VEC3"
		},
		{
			"bufferView":22,
			"componentType":5126,
			"count":160,
			"type":"VEC2"
		}
	],
	"bufferViews":[
		{
			"buffer":0,
			"byteLength":1032,
			"byteOffset":0,
			"target":34962
		},
		{
			"buffer":0,
			"byteLength":1032,
			"byteOffset":1032,
			"target":34962
		},
		{
			"buffer":0,
			"byteLength":688,
			"byteOffset":2064,
			"target":34962
		},
		{
			"buffer":0,
			"byteLength":348,
			"byteOffset":2752,
			"target":34963
		},
		{
			"buffer":0,
			"byteLength":192,
			"byteOffset":3100,
			"target":34962
		},
		{
			"buffer":0,
			"byteLength":192,
			"byteOffset":3292,
			"target":34962
		},
		{
			"buffer":0,
			"byteLength":128,
			"byteOffset":3484,
			"target":34962
		},
		{
			"buffer":0,
			"byteLength":48,
			"byteOffset":3612,
			"target":34963
		},
		{
			"buffer":0,
			"byteLength":1152,
			"byteOffset":3660,
			"target":34962
		},
		{
			"buffer":0,
			"byteLength":1152,
			"byteOffset":4812,
			"target":34962
		},
		{
			"buffer":0,
			"byteLength":768,
			"byteOffset":5964,
			"target":34962
		},
		{
			"buffer":0,
			"byteLength":288,
			"byteOffset":6732,
			"target":34963
		},
		{
			"buffer":0,
			"byteLength":1920,
			"byteOffset":7020,
			"target":34962
		},
		{
			"buffer":0,
			"byteLength":1920,
			"byteOffset":8940,
			"target":34962
		},
		{
			"buffer":0,
			"byteLength":1280,
			"byteOffset":10860,
			"target":34962
		},
		{
			"buffer":0,
			"byteLength":480,
			"byteOffset":12140,
			"target":34963
		},
		{
			"buffer":0,
			"byteLength":240,
			"byteOffset":12620,
			"target":34962
		},
		{
			"buffer":0,
			"byteLength":240,
			"byteOffset":12860,
			"target":34962
		},
		{
			"buffer":0,
			"byteLength":160,
			"byteOffset":13100,
			"target":34962
		},
		{
			"buffer":0,
			"byteLength":60,
			"byteOffset":13260,
			"target":34963
		},
		{
			"buffer":0,
			"byteLength":1920,
			"byteOffset":13320,
			"target":34962
		},
		{
			"buffer":0,
			"byteLength":1920,
			"byteOffset":15240,
			"target":34962
		},
		{
			"buffer":0,
			"byteLength":1280,
			"byteOffset":17160,
			"target":34962
		}
	],
	"samplers":[
		{
			"magFilter":9728,
			"minFilter":9984
		}
	],
	"buffers":[
		{
			"byteLength":18440,
			"uri":"Hallway.bin"
		}
	]
}
