{
	"asset":{
		"generator":"Khronos glTF Blender I/O v4.4.35",
		"version":"2.0"
	},
	"scene":0,
	"scenes":[
		{
			"name":"Scene",
			"nodes":[
				0,
				1,
				2,
				3,
				4,
				5
			]
		}
	],
	"nodes":[
		{
			"mesh":0,
			"name":"Map-col",
			"translation":[
				1.119173526763916,
				1.4841833114624023,
				11.6110258102417
			]
		},
		{
			"mesh":1,
			"name":"Linka3-convcol",
			"translation":[
				-0.767977237701416,
				0.47499996423721313,
				-1.706510066986084
			]
		},
		{
			"mesh":2,
			"name":"Linka2-convcol",
			"translation":[
				-1.5727720260620117,
				0.47499990463256836,
				-1.7065105438232422
			]
		},
		{
			"mesh":3,
			"name":"Linka1-convcol",
			"translation":[
				-2.3775665760040283,
				0.47499990463256836,
				-1.7065095901489258
			]
		},
		{
			"mesh":4,
			"name":"Table-col",
			"translation":[
				1.119173526763916,
				1.4841833114624023,
				11.6110258102417
			]
		},
		{
			"mesh":5,
			"name":"TimberPile-convcol",
			"translation":[
				2.869551658630371,
				0.42924964427948,
				-1.8047332763671875
			]
		}
	],
	"materials":[
		{
			"doubleSided":true,
			"name":"HD",
			"pbrMetallicRoughness":{
				"baseColorTexture":{
					"index":0
				},
				"metallicFactor":0
			}
		},
		{
			"doubleSided":true,
			"name":"SD",
			"pbrMetallicRoughness":{
				"baseColorTexture":{
					"index":1
				},
				"metallicFactor":0
			}
		},
		{
			"doubleSided":true,
			"name":"Outside",
			"pbrMetallicRoughness":{
				"baseColorTexture":{
					"index":2
				},
				"metallicFactor":0,
				"roughnessFactor":0.5
			}
		}
	],
	"meshes":[
		{
			"name":"Cube.002",
			"primitives":[
				{
					"attributes":{
						"POSITION":0,
						"NORMAL":1,
						"TEXCOORD_0":2
					},
					"indices":3,
					"material":0
				},
				{
					"attributes":{
						"POSITION":4,
						"NORMAL":5,
						"TEXCOORD_0":6
					},
					"indices":7,
					"material":1
				},
				{
					"attributes":{
						"POSITION":8,
						"NORMAL":9,
						"TEXCOORD_0":10
					},
					"indices":11,
					"material":2
				}
			]
		},
		{
			"name":"Cube.029",
			"primitives":[
				{
					"attributes":{
						"POSITION":12,
						"NORMAL":13,
						"TEXCOORD_0":14
					},
					"indices":15,
					"material":1
				}
			]
		},
		{
			"name":"Cube.030",
			"primitives":[
				{
					"attributes":{
						"POSITION":16,
						"NORMAL":17,
						"TEXCOORD_0":18
					},
					"indices":19,
					"material":1
				}
			]
		},
		{
			"name":"Cube.031",
			"primitives":[
				{
					"attributes":{
						"POSITION":20,
						"NORMAL":21,
						"TEXCOORD_0":22
					},
					"indices":23,
					"material":1
				}
			]
		},
		{
			"name":"Cube.045",
			"primitives":[
				{
					"attributes":{
						"POSITION":24,
						"NORMAL":25,
						"TEXCOORD_0":26
					},
					"indices":27,
					"material":1
				}
			]
		},
		{
			"name":"Cube.046",
			"primitives":[
				{
					"attributes":{
						"POSITION":28,
						"NORMAL":29,
						"TEXCOORD_0":30
					},
					"indices":31,
					"material":1
				}
			]
		}
	],
	"textures":[
		{
			"sampler":0,
			"source":0
		},
		{
			"sampler":0,
			"source":1
		},
		{
			"sampler":1,
			"source":2
		}
	],
	"images":[
		{
			"mimeType":"image/png",
			"name":"TestureAtlas2",
			"uri":"../../textures/maro_kit/TestureAtlas2.png"
		},
		{
			"mimeType":"image/png",
			"name":"TestureAtlas1",
			"uri":"../../textures/maro_kit/TestureAtlas1.png"
		},
		{
			"mimeType":"image/jpeg",
			"name":"panel_k_v_noci",
			"uri":"../../textures/maro_kit/panel_k_v_noci.jpg"
		}
	],
	"accessors":[
		{
			"bufferView":0,
			"componentType":5126,
			"count":1893,
			"max":[
				4.27293062210083,
				1.2558166980743408,
				-7.998109817504883
			],
			"min":[
				-4.704540252685547,
				-1.5693964958190918,
				-14.534228324890137
			],
			"type":"VEC3"
		},
		{
			"bufferView":1,
			"componentType":5126,
			"count":1893,
			"type":"VEC3"
		},
		{
			"bufferView":2,
			"componentType":5126,
			"count":1893,
			"type":"VEC2"
		},
		{
			"bufferView":3,
			"componentType":5123,
			"count":5850,
			"type":"SCALAR"
		},
		{
			"bufferView":4,
			"componentType":5126,
			"count":5028,
			"max":[
				2.4754390716552734,
				1.4383254051208496,
				-8.014680862426758
			],
			"min":[
				-4.704540729522705,
				-1.4841833114624023,
				-13.803451538085938
			],
			"type":"VEC3"
		},
		{
			"bufferView":5,
			"componentType":5126,
			"count":5028,
			"type":"VEC3"
		},
		{
			"bufferView":6,
			"componentType":5126,
			"count":5028,
			"type":"VEC2"
		},
		{
			"bufferView":7,
			"componentType":5123,
			"count":9078,
			"type":"SCALAR"
		},
		{
			"bufferView":8,
			"componentType":5126,
			"count":16,
			"max":[
				11.698038101196289,
				11.698038101196289,
				14.534228324890137
			],
			"min":[
				-11.698038101196289,
				-11.698038101196289,
				-8.861847877502441
			],
			"type":"VEC3"
		},
		{
			"bufferView":9,
			"componentType":5126,
			"count":16,
			"type":"VEC3"
		},
		{
			"bufferView":10,
			"componentType":5126,
			"count":16,
			"type":"VEC2"
		},
		{
			"bufferView":11,
			"componentType":5123,
			"count":30,
			"type":"SCALAR"
		},
		{
			"bufferView":12,
			"componentType":5126,
			"count":176,
			"max":[
				0.40239739418029785,
				0.47499996423721313,
				0.42994582653045654
			],
			"min":[
				-0.40239739418029785,
				-0.4749999940395355,
				-0.4299459457397461
			],
			"type":"VEC3"
		},
		{
			"bufferView":13,
			"componentType":5126,
			"count":176,
			"type":"VEC3"
		},
		{
			"bufferView":14,
			"componentType":5126,
			"count":176,
			"type":"VEC2"
		},
		{
			"bufferView":15,
			"componentType":5123,
			"count":288,
			"type":"SCALAR"
		},
		{
			"bufferView":16,
			"componentType":5126,
			"count":150,
			"max":[
				0.40239739418029785,
				0.4750000238418579,
				0.4299459457397461
			],
			"min":[
				-0.40239715576171875,
				-0.47499990463256836,
				-0.4299459457397461
			],
			"type":"VEC3"
		},
		{
			"bufferView":17,
			"componentType":5126,
			"count":150,
			"type":"VEC3"
		},
		{
			"bufferView":18,
			"componentType":5126,
			"count":150,
			"type":"VEC2"
		},
		{
			"bufferView":19,
			"componentType":5123,
			"count":240,
			"type":"SCALAR"
		},
		{
			"bufferView":20,
			"componentType":5126,
			"count":148,
			"max":[
				0.40239739418029785,
				0.4750000238418579,
				0.4299459457397461
			],
			"min":[
				-0.40239739418029785,
				-0.47499990463256836,
				-0.4299468994140625
			],
			"type":"VEC3"
		},
		{
			"bufferView":21,
			"componentType":5126,
			"count":148,
			"type":"VEC3"
		},
		{
			"bufferView":22,
			"componentType":5126,
			"count":148,
			"type":"VEC2"
		},
		{
			"bufferView":23,
			"componentType":5123,
			"count":240,
			"type":"SCALAR"
		},
		{
			"bufferView":24,
			"componentType":5126,
			"count":104,
			"max":[
				-3.012153387069702,
				-0.7341833114624023,
				-8.083887100219727
			],
			"min":[
				-4.612153053283691,
				-1.4841833114624023,
				-8.883888244628906
			],
			"type":"VEC3"
		},
		{
			"bufferView":25,
			"componentType":5126,
			"count":104,
			"type":"VEC3"
		},
		{
			"bufferView":26,
			"componentType":5126,
			"count":104,
			"type":"VEC2"
		},
		{
			"bufferView":27,
			"componentType":5123,
			"count":156,
			"type":"SCALAR"
		},
		{
			"bufferView":28,
			"componentType":5126,
			"count":5140,
			"max":[
				0.6992917060852051,
				0.42924964427948,
				0.3390016555786133
			],
			"min":[
				-0.6992917060852051,
				-0.42924964427948,
				-0.3390016555786133
			],
			"type":"VEC3"
		},
		{
			"bufferView":29,
			"componentType":5126,
			"count":5140,
			"type":"VEC3"
		},
		{
			"bufferView":30,
			"componentType":5126,
			"count":5140,
			"type":"VEC2"
		},
		{
			"bufferView":31,
			"componentType":5123,
			"count":7710,
			"type":"SCALAR"
		}
	],
	"bufferViews":[
		{
			"buffer":0,
			"byteLength":22716,
			"byteOffset":0,
			"target":34962
		},
		{
			"buffer":0,
			"byteLength":22716,
			"byteOffset":22716,
			"target":34962
		},
		{
			"buffer":0,
			"byteLength":15144,
			"byteOffset":45432,
			"target":34962
		},
		{
			"buffer":0,
			"byteLength":11700,
			"byteOffset":60576,
			"target":34963
		},
		{
			"buffer":0,
			"byteLength":60336,
			"byteOffset":72276,
			"target":34962
		},
		{
			"buffer":0,
			"byteLength":60336,
			"byteOffset":132612,
			"target":34962
		},
		{
			"buffer":0,
			"byteLength":40224,
			"byteOffset":192948,
			"target":34962
		},
		{
			"buffer":0,
			"byteLength":18156,
			"byteOffset":233172,
			"target":34963
		},
		{
			"buffer":0,
			"byteLength":192,
			"byteOffset":251328,
			"target":34962
		},
		{
			"buffer":0,
			"byteLength":192,
			"byteOffset":251520,
			"target":34962
		},
		{
			"buffer":0,
			"byteLength":128,
			"byteOffset":251712,
			"target":34962
		},
		{
			"buffer":0,
			"byteLength":60,
			"byteOffset":251840,
			"target":34963
		},
		{
			"buffer":0,
			"byteLength":2112,
			"byteOffset":251900,
			"target":34962
		},
		{
			"buffer":0,
			"byteLength":2112,
			"byteOffset":254012,
			"target":34962
		},
		{
			"buffer":0,
			"byteLength":1408,
			"byteOffset":256124,
			"target":34962
		},
		{
			"buffer":0,
			"byteLength":576,
			"byteOffset":257532,
			"target":34963
		},
		{
			"buffer":0,
			"byteLength":1800,
			"byteOffset":258108,
			"target":34962
		},
		{
			"buffer":0,
			"byteLength":1800,
			"byteOffset":259908,
			"target":34962
		},
		{
			"buffer":0,
			"byteLength":1200,
			"byteOffset":261708,
			"target":34962
		},
		{
			"buffer":0,
			"byteLength":480,
			"byteOffset":262908,
			"target":34963
		},
		{
			"buffer":0,
			"byteLength":1776,
			"byteOffset":263388,
			"target":34962
		},
		{
			"buffer":0,
			"byteLength":1776,
			"byteOffset":265164,
			"target":34962
		},
		{
			"buffer":0,
			"byteLength":1184,
			"byteOffset":266940,
			"target":34962
		},
		{
			"buffer":0,
			"byteLength":480,
			"byteOffset":268124,
			"target":34963
		},
		{
			"buffer":0,
			"byteLength":1248,
			"byteOffset":268604,
			"target":34962
		},
		{
			"buffer":0,
			"byteLength":1248,
			"byteOffset":269852,
			"target":34962
		},
		{
			"buffer":0,
			"byteLength":832,
			"byteOffset":271100,
			"target":34962
		},
		{
			"buffer":0,
			"byteLength":312,
			"byteOffset":271932,
			"target":34963
		},
		{
			"buffer":0,
			"byteLength":61680,
			"byteOffset":272244,
			"target":34962
		},
		{
			"buffer":0,
			"byteLength":61680,
			"byteOffset":333924,
			"target":34962
		},
		{
			"buffer":0,
			"byteLength":41120,
			"byteOffset":395604,
			"target":34962
		},
		{
			"buffer":0,
			"byteLength":15420,
			"byteOffset":436724,
			"target":34963
		}
	],
	"samplers":[
		{
			"magFilter":9728,
			"minFilter":9984
		},
		{
			"magFilter":9729,
			"minFilter":9987
		}
	],
	"buffers":[
		{
			"byteLength":452144,
			"uri":"Map.bin"
		}
	]
}
