{
	"asset":{
		"generator":"Khronos glTF Blender I/O v4.4.35",
		"version":"2.0"
	},
	"scene":0,
	"scenes":[
		{
			"name":"Scene",
			"nodes":[
				0,
				1,
				2,
				3,
				4,
				5,
				6,
				7,
				8,
				9,
				10,
				11,
				12,
				13,
				14
			]
		}
	],
	"nodes":[
		{
			"mesh":0,
			"name":"Map-col",
			"translation":[
				1.119173526763916,
				1.4841833114624023,
				11.6110258102417
			]
		},
		{
			"mesh":1,
			"name":"Linka3-convcol",
			"translation":[
				-0.767977237701416,
				0.47499996423721313,
				-1.706510066986084
			]
		},
		{
			"mesh":2,
			"name":"Linka2-convcol",
			"translation":[
				-1.5727720260620117,
				0.47499990463256836,
				-1.7065105438232422
			]
		},
		{
			"mesh":3,
			"name":"Linka1-convcol",
			"translation":[
				-2.3775665760040283,
				0.47499990463256836,
				-1.7065095901489258
			]
		},
		{
			"mesh":4,
			"name":"Table-col",
			"translation":[
				1.119173526763916,
				1.4841833114624023,
				11.6110258102417
			]
		},
		{
			"mesh":5,
			"name":"TimberPile-convcol",
			"translation":[
				2.869551658630371,
				0.42924964427948,
				-1.8047332763671875
			]
		},
		{
			"mesh":6,
			"name":"Map-col.001",
			"scale":[
				0.5531092286109924,
				0.5531092286109924,
				0.5531092286109924
			],
			"translation":[
				1.119173526763916,
				3.3523366451263428,
				8.967336654663086
			]
		},
		{
			"mesh":7,
			"name":"Map-col.002",
			"rotation":[
				0,
				0.2588190734386444,
				0,
				0.965925931930542
			],
			"translation":[
				-2.457141637802124,
				0.32962262630462646,
				3.1099772453308105
			]
		},
		{
			"mesh":8,
			"name":"Map-col.003",
			"scale":[
				0.5531092286109924,
				0.5531092286109924,
				0.5531092286109924
			],
			"translation":[
				-11.334554672241211,
				-0.399772047996521,
				10.536060333251953
			]
		},
		{
			"mesh":9,
			"name":"Map-col.006",
			"rotation":[
				0,
				0.3566908836364746,
				0,
				0.9342224597930908
			],
			"scale":[
				0.5531091690063477,
				0.5531092286109924,
				0.5531091690063477
			],
			"translation":[
				11.966492652893066,
				0.9245306849479675,
				27.211687088012695
			]
		},
		{
			"mesh":10,
			"name":"Map-col.007",
			"rotation":[
				0,
				0.3952552378177643,
				0,
				0.9185714721679688
			],
			"scale":[
				0.5531092286109924,
				0.5531092286109924,
				0.5531092286109924
			],
			"translation":[
				-9.357512474060059,
				0.47709137201309204,
				22.246362686157227
			]
		},
		{
			"mesh":11,
			"name":"Map-col.008",
			"rotation":[
				0,
				0.9914449453353882,
				0,
				0.13052624464035034
			],
			"scale":[
				0.5531092286109924,
				0.5531092286109924,
				0.5531092286109924
			],
			"translation":[
				20.382526397705078,
				1.8973851203918457,
				17.958600997924805
			]
		},
		{
			"mesh":12,
			"name":"Map-col.004",
			"rotation":[
				0,
				0.6531813740730286,
				0,
				0.7572015523910522
			],
			"scale":[
				0.5531091690063477,
				0.5531092286109924,
				0.5531091690063477
			],
			"translation":[
				1.396282434463501,
				1.589754581451416,
				22.97637367248535
			]
		},
		{
			"mesh":13,
			"name":"Map-col.005",
			"rotation":[
				0,
				0.9791587591171265,
				0,
				0.20309680700302124
			],
			"scale":[
				0.5531092286109924,
				0.5531092286109924,
				0.5531092286109924
			],
			"translation":[
				9.520506858825684,
				1.589754581451416,
				10.03298282623291
			]
		},
		{
			"mesh":14,
			"name":"Map-col.009",
			"scale":[
				1.1728487014770508,
				0.5531092286109924,
				1.1728487014770508
			],
			"translation":[
				1.119173526763916,
				3.3523366451263428,
				8.967336654663086
			]
		}
	],
	"materials":[
		{
			"doubleSided":true,
			"name":"HD",
			"pbrMetallicRoughness":{
				"baseColorTexture":{
					"index":0
				},
				"metallicFactor":0
			}
		},
		{
			"doubleSided":true,
			"name":"SD",
			"pbrMetallicRoughness":{
				"baseColorTexture":{
					"index":1
				},
				"metallicFactor":0
			}
		},
		{
			"doubleSided":true,
			"emissiveTexture":{
				"index":2
			},
			"name":"Outside",
			"pbrMetallicRoughness":{
				"baseColorTexture":{
					"index":3
				},
				"metallicFactor":0,
				"roughnessFactor":0.5
			}
		}
	],
	"meshes":[
		{
			"name":"Cube.002",
			"primitives":[
				{
					"attributes":{
						"POSITION":0,
						"NORMAL":1,
						"TEXCOORD_0":2
					},
					"indices":3,
					"material":0
				},
				{
					"attributes":{
						"POSITION":4,
						"NORMAL":5,
						"TEXCOORD_0":6
					},
					"indices":7,
					"material":1
				}
			]
		},
		{
			"name":"Cube.029",
			"primitives":[
				{
					"attributes":{
						"POSITION":8,
						"NORMAL":9,
						"TEXCOORD_0":10
					},
					"indices":11,
					"material":1
				}
			]
		},
		{
			"name":"Cube.030",
			"primitives":[
				{
					"attributes":{
						"POSITION":12,
						"NORMAL":13,
						"TEXCOORD_0":14
					},
					"indices":15,
					"material":1
				}
			]
		},
		{
			"name":"Cube.031",
			"primitives":[
				{
					"attributes":{
						"POSITION":16,
						"NORMAL":17,
						"TEXCOORD_0":18
					},
					"indices":19,
					"material":1
				}
			]
		},
		{
			"name":"Cube.045",
			"primitives":[
				{
					"attributes":{
						"POSITION":20,
						"NORMAL":21,
						"TEXCOORD_0":22
					},
					"indices":23,
					"material":1
				}
			]
		},
		{
			"name":"Cube.046",
			"primitives":[
				{
					"attributes":{
						"POSITION":24,
						"NORMAL":25,
						"TEXCOORD_0":26
					},
					"indices":27,
					"material":1
				}
			]
		},
		{
			"name":"Cube.059",
			"primitives":[
				{
					"attributes":{
						"POSITION":28,
						"NORMAL":29,
						"TEXCOORD_0":30
					},
					"indices":31,
					"material":2
				}
			]
		},
		{
			"name":"Cube.005",
			"primitives":[
				{
					"attributes":{
						"POSITION":32,
						"NORMAL":33,
						"TEXCOORD_0":34
					},
					"indices":35,
					"material":0
				}
			]
		},
		{
			"name":"Cube.016",
			"primitives":[
				{
					"attributes":{
						"POSITION":36,
						"NORMAL":37,
						"TEXCOORD_0":38
					},
					"indices":39,
					"material":2
				}
			]
		},
		{
			"name":"Cube.020",
			"primitives":[
				{
					"attributes":{
						"POSITION":40,
						"NORMAL":41,
						"TEXCOORD_0":42
					},
					"indices":43,
					"material":2
				}
			]
		},
		{
			"name":"Cube.022",
			"primitives":[
				{
					"attributes":{
						"POSITION":44,
						"NORMAL":45,
						"TEXCOORD_0":46
					},
					"indices":39,
					"material":2
				}
			]
		},
		{
			"name":"Cube.024",
			"primitives":[
				{
					"attributes":{
						"POSITION":47,
						"NORMAL":48,
						"TEXCOORD_0":49
					},
					"indices":39,
					"material":2
				}
			]
		},
		{
			"name":"Cube.026",
			"primitives":[
				{
					"attributes":{
						"POSITION":50,
						"NORMAL":51,
						"TEXCOORD_0":52
					},
					"indices":39,
					"material":2
				}
			]
		},
		{
			"name":"Cube.027",
			"primitives":[
				{
					"attributes":{
						"POSITION":53,
						"NORMAL":54,
						"TEXCOORD_0":55
					},
					"indices":39,
					"material":2
				}
			]
		},
		{
			"name":"Cube.028",
			"primitives":[
				{
					"attributes":{
						"POSITION":56,
						"NORMAL":57,
						"TEXCOORD_0":58
					},
					"indices":59,
					"material":2
				}
			]
		}
	],
	"textures":[
		{
			"sampler":0,
			"source":0
		},
		{
			"sampler":0,
			"source":1
		},
		{
			"sampler":1,
			"source":2
		},
		{
			"sampler":1,
			"source":3
		}
	],
	"images":[
		{
			"mimeType":"image/png",
			"name":"TestureAtlas2",
			"uri":"../../textures/maro_kit/TestureAtlas2.png"
		},
		{
			"mimeType":"image/png",
			"name":"TestureAtlas1",
			"uri":"../../textures/maro_kit/TestureAtlas1.png"
		},
		{
			"mimeType":"image/png",
			"name":"Outside_Emission",
			"uri":"../../textures/maro_kit/Outside_Emission.png"
		},
		{
			"mimeType":"image/jpeg",
			"name":"panel_k_v_noci",
			"uri":"../../textures/maro_kit/panel_k_v_noci.jpg"
		}
	],
	"accessors":[
		{
			"bufferView":0,
			"componentType":5126,
			"count":2008,
			"max":[
				4.27293062210083,
				1.2558166980743408,
				-7.998109817504883
			],
			"min":[
				-4.704540252685547,
				-1.5693964958190918,
				-14.534228324890137
			],
			"type":"VEC3"
		},
		{
			"bufferView":1,
			"componentType":5126,
			"count":2008,
			"type":"VEC3"
		},
		{
			"bufferView":2,
			"componentType":5126,
			"count":2008,
			"type":"VEC2"
		},
		{
			"bufferView":3,
			"componentType":5123,
			"count":6078,
			"type":"SCALAR"
		},
		{
			"bufferView":4,
			"componentType":5126,
			"count":5274,
			"max":[
				2.4754390716552734,
				1.4383254051208496,
				-8.014680862426758
			],
			"min":[
				-4.704540729522705,
				-1.4841833114624023,
				-13.803451538085938
			],
			"type":"VEC3"
		},
		{
			"bufferView":5,
			"componentType":5126,
			"count":5274,
			"type":"VEC3"
		},
		{
			"bufferView":6,
			"componentType":5126,
			"count":5274,
			"type":"VEC2"
		},
		{
			"bufferView":7,
			"componentType":5123,
			"count":9498,
			"type":"SCALAR"
		},
		{
			"bufferView":8,
			"componentType":5126,
			"count":176,
			"max":[
				0.40239739418029785,
				0.47499996423721313,
				0.42994582653045654
			],
			"min":[
				-0.40239739418029785,
				-0.4749999940395355,
				-0.4299459457397461
			],
			"type":"VEC3"
		},
		{
			"bufferView":9,
			"componentType":5126,
			"count":176,
			"type":"VEC3"
		},
		{
			"bufferView":10,
			"componentType":5126,
			"count":176,
			"type":"VEC2"
		},
		{
			"bufferView":11,
			"componentType":5123,
			"count":288,
			"type":"SCALAR"
		},
		{
			"bufferView":12,
			"componentType":5126,
			"count":150,
			"max":[
				0.40239739418029785,
				0.4750000238418579,
				0.4299459457397461
			],
			"min":[
				-0.40239715576171875,
				-0.47499990463256836,
				-0.4299459457397461
			],
			"type":"VEC3"
		},
		{
			"bufferView":13,
			"componentType":5126,
			"count":150,
			"type":"VEC3"
		},
		{
			"bufferView":14,
			"componentType":5126,
			"count":150,
			"type":"VEC2"
		},
		{
			"bufferView":15,
			"componentType":5123,
			"count":240,
			"type":"SCALAR"
		},
		{
			"bufferView":16,
			"componentType":5126,
			"count":148,
			"max":[
				0.40239739418029785,
				0.4750000238418579,
				0.4299459457397461
			],
			"min":[
				-0.40239739418029785,
				-0.47499990463256836,
				-0.4299468994140625
			],
			"type":"VEC3"
		},
		{
			"bufferView":17,
			"componentType":5126,
			"count":148,
			"type":"VEC3"
		},
		{
			"bufferView":18,
			"componentType":5126,
			"count":148,
			"type":"VEC2"
		},
		{
			"bufferView":19,
			"componentType":5123,
			"count":240,
			"type":"SCALAR"
		},
		{
			"bufferView":20,
			"componentType":5126,
			"count":104,
			"max":[
				-3.012153387069702,
				-0.7341833114624023,
				-8.083887100219727
			],
			"min":[
				-4.612153053283691,
				-1.4841833114624023,
				-8.883888244628906
			],
			"type":"VEC3"
		},
		{
			"bufferView":21,
			"componentType":5126,
			"count":104,
			"type":"VEC3"
		},
		{
			"bufferView":22,
			"componentType":5126,
			"count":104,
			"type":"VEC2"
		},
		{
			"bufferView":23,
			"componentType":5123,
			"count":156,
			"type":"SCALAR"
		},
		{
			"bufferView":24,
			"componentType":5126,
			"count":5140,
			"max":[
				0.6992917060852051,
				0.42924964427948,
				0.3390016555786133
			],
			"min":[
				-0.6992917060852051,
				-0.42924964427948,
				-0.3390016555786133
			],
			"type":"VEC3"
		},
		{
			"bufferView":25,
			"componentType":5126,
			"count":5140,
			"type":"VEC3"
		},
		{
			"bufferView":26,
			"componentType":5126,
			"count":5140,
			"type":"VEC2"
		},
		{
			"bufferView":27,
			"componentType":5123,
			"count":7710,
			"type":"SCALAR"
		},
		{
			"bufferView":28,
			"componentType":5126,
			"count":62,
			"max":[
				11.698038101196289,
				-1.9676789045333862,
				14.534228324890137
			],
			"min":[
				-11.698038101196289,
				-11.698038101196289,
				-8.861846923828125
			],
			"type":"VEC3"
		},
		{
			"bufferView":29,
			"componentType":5126,
			"count":62,
			"type":"VEC3"
		},
		{
			"bufferView":30,
			"componentType":5126,
			"count":62,
			"type":"VEC2"
		},
		{
			"bufferView":31,
			"componentType":5123,
			"count":180,
			"type":"SCALAR"
		},
		{
			"bufferView":32,
			"componentType":5126,
			"count":20,
			"max":[
				0.0970613956451416,
				0.1111607551574707,
				0.14122962951660156
			],
			"min":[
				-0.0970613956451416,
				-0.1111607551574707,
				-0.14122962951660156
			],
			"type":"VEC3"
		},
		{
			"bufferView":33,
			"componentType":5126,
			"count":20,
			"type":"VEC3"
		},
		{
			"bufferView":34,
			"componentType":5126,
			"count":20,
			"type":"VEC2"
		},
		{
			"bufferView":35,
			"componentType":5123,
			"count":30,
			"type":"SCALAR"
		},
		{
			"bufferView":36,
			"componentType":5126,
			"count":30,
			"max":[
				0,
				3.7620902061462402,
				11.698038101196289
			],
			"min":[
				0,
				-3.762089729309082,
				-11.698038101196289
			],
			"type":"VEC3"
		},
		{
			"bufferView":37,
			"componentType":5126,
			"count":30,
			"type":"VEC3"
		},
		{
			"bufferView":38,
			"componentType":5126,
			"count":30,
			"type":"VEC2"
		},
		{
			"bufferView":39,
			"componentType":5123,
			"count":84,
			"type":"SCALAR"
		},
		{
			"bufferView":40,
			"componentType":5126,
			"count":34,
			"max":[
				11.698038101196289,
				4.86517858505249,
				9.5367431640625e-07
			],
			"min":[
				-11.698038101196289,
				-4.86517858505249,
				0
			],
			"type":"VEC3"
		},
		{
			"bufferView":41,
			"componentType":5126,
			"count":34,
			"type":"VEC3"
		},
		{
			"bufferView":42,
			"componentType":5126,
			"count":34,
			"type":"VEC2"
		},
		{
			"bufferView":43,
			"componentType":5123,
			"count":96,
			"type":"SCALAR"
		},
		{
			"bufferView":44,
			"componentType":5126,
			"count":30,
			"max":[
				0,
				3.7620902061462402,
				11.698038101196289
			],
			"min":[
				0,
				-3.762089729309082,
				-11.698038101196289
			],
			"type":"VEC3"
		},
		{
			"bufferView":45,
			"componentType":5126,
			"count":30,
			"type":"VEC3"
		},
		{
			"bufferView":46,
			"componentType":5126,
			"count":30,
			"type":"VEC2"
		},
		{
			"bufferView":47,
			"componentType":5126,
			"count":30,
			"max":[
				0,
				3.7620902061462402,
				11.698038101196289
			],
			"min":[
				0,
				-3.762089729309082,
				-11.698038101196289
			],
			"type":"VEC3"
		},
		{
			"bufferView":48,
			"componentType":5126,
			"count":30,
			"type":"VEC3"
		},
		{
			"bufferView":49,
			"componentType":5126,
			"count":30,
			"type":"VEC2"
		},
		{
			"bufferView":50,
			"componentType":5126,
			"count":30,
			"max":[
				0,
				3.7620902061462402,
				11.698038101196289
			],
			"min":[
				0,
				-3.762089729309082,
				-11.698038101196289
			],
			"type":"VEC3"
		},
		{
			"bufferView":51,
			"componentType":5126,
			"count":30,
			"type":"VEC3"
		},
		{
			"bufferView":52,
			"componentType":5126,
			"count":30,
			"type":"VEC2"
		},
		{
			"bufferView":53,
			"componentType":5126,
			"count":30,
			"max":[
				0,
				3.7620902061462402,
				11.698038101196289
			],
			"min":[
				0,
				-8.913387298583984,
				-11.698038101196289
			],
			"type":"VEC3"
		},
		{
			"bufferView":54,
			"componentType":5126,
			"count":30,
			"type":"VEC3"
		},
		{
			"bufferView":55,
			"componentType":5126,
			"count":30,
			"type":"VEC2"
		},
		{
			"bufferView":56,
			"componentType":5126,
			"count":4,
			"max":[
				11.698038101196289,
				-11.698036193847656,
				14.534228324890137
			],
			"min":[
				-11.698038101196289,
				-11.698038101196289,
				-8.861845970153809
			],
			"type":"VEC3"
		},
		{
			"bufferView":57,
			"componentType":5126,
			"count":4,
			"type":"VEC3"
		},
		{
			"bufferView":58,
			"componentType":5126,
			"count":4,
			"type":"VEC2"
		},
		{
			"bufferView":59,
			"componentType":5123,
			"count":6,
			"type":"SCALAR"
		}
	],
	"bufferViews":[
		{
			"buffer":0,
			"byteLength":24096,
			"byteOffset":0,
			"target":34962
		},
		{
			"buffer":0,
			"byteLength":24096,
			"byteOffset":24096,
			"target":34962
		},
		{
			"buffer":0,
			"byteLength":16064,
			"byteOffset":48192,
			"target":34962
		},
		{
			"buffer":0,
			"byteLength":12156,
			"byteOffset":64256,
			"target":34963
		},
		{
			"buffer":0,
			"byteLength":63288,
			"byteOffset":76412,
			"target":34962
		},
		{
			"buffer":0,
			"byteLength":63288,
			"byteOffset":139700,
			"target":34962
		},
		{
			"buffer":0,
			"byteLength":42192,
			"byteOffset":202988,
			"target":34962
		},
		{
			"buffer":0,
			"byteLength":18996,
			"byteOffset":245180,
			"target":34963
		},
		{
			"buffer":0,
			"byteLength":2112,
			"byteOffset":264176,
			"target":34962
		},
		{
			"buffer":0,
			"byteLength":2112,
			"byteOffset":266288,
			"target":34962
		},
		{
			"buffer":0,
			"byteLength":1408,
			"byteOffset":268400,
			"target":34962
		},
		{
			"buffer":0,
			"byteLength":576,
			"byteOffset":269808,
			"target":34963
		},
		{
			"buffer":0,
			"byteLength":1800,
			"byteOffset":270384,
			"target":34962
		},
		{
			"buffer":0,
			"byteLength":1800,
			"byteOffset":272184,
			"target":34962
		},
		{
			"buffer":0,
			"byteLength":1200,
			"byteOffset":273984,
			"target":34962
		},
		{
			"buffer":0,
			"byteLength":480,
			"byteOffset":275184,
			"target":34963
		},
		{
			"buffer":0,
			"byteLength":1776,
			"byteOffset":275664,
			"target":34962
		},
		{
			"buffer":0,
			"byteLength":1776,
			"byteOffset":277440,
			"target":34962
		},
		{
			"buffer":0,
			"byteLength":1184,
			"byteOffset":279216,
			"target":34962
		},
		{
			"buffer":0,
			"byteLength":480,
			"byteOffset":280400,
			"target":34963
		},
		{
			"buffer":0,
			"byteLength":1248,
			"byteOffset":280880,
			"target":34962
		},
		{
			"buffer":0,
			"byteLength":1248,
			"byteOffset":282128,
			"target":34962
		},
		{
			"buffer":0,
			"byteLength":832,
			"byteOffset":283376,
			"target":34962
		},
		{
			"buffer":0,
			"byteLength":312,
			"byteOffset":284208,
			"target":34963
		},
		{
			"buffer":0,
			"byteLength":61680,
			"byteOffset":284520,
			"target":34962
		},
		{
			"buffer":0,
			"byteLength":61680,
			"byteOffset":346200,
			"target":34962
		},
		{
			"buffer":0,
			"byteLength":41120,
			"byteOffset":407880,
			"target":34962
		},
		{
			"buffer":0,
			"byteLength":15420,
			"byteOffset":449000,
			"target":34963
		},
		{
			"buffer":0,
			"byteLength":744,
			"byteOffset":464420,
			"target":34962
		},
		{
			"buffer":0,
			"byteLength":744,
			"byteOffset":465164,
			"target":34962
		},
		{
			"buffer":0,
			"byteLength":496,
			"byteOffset":465908,
			"target":34962
		},
		{
			"buffer":0,
			"byteLength":360,
			"byteOffset":466404,
			"target":34963
		},
		{
			"buffer":0,
			"byteLength":240,
			"byteOffset":466764,
			"target":34962
		},
		{
			"buffer":0,
			"byteLength":240,
			"byteOffset":467004,
			"target":34962
		},
		{
			"buffer":0,
			"byteLength":160,
			"byteOffset":467244,
			"target":34962
		},
		{
			"buffer":0,
			"byteLength":60,
			"byteOffset":467404,
			"target":34963
		},
		{
			"buffer":0,
			"byteLength":360,
			"byteOffset":467464,
			"target":34962
		},
		{
			"buffer":0,
			"byteLength":360,
			"byteOffset":467824,
			"target":34962
		},
		{
			"buffer":0,
			"byteLength":240,
			"byteOffset":468184,
			"target":34962
		},
		{
			"buffer":0,
			"byteLength":168,
			"byteOffset":468424,
			"target":34963
		},
		{
			"buffer":0,
			"byteLength":408,
			"byteOffset":468592,
			"target":34962
		},
		{
			"buffer":0,
			"byteLength":408,
			"byteOffset":469000,
			"target":34962
		},
		{
			"buffer":0,
			"byteLength":272,
			"byteOffset":469408,
			"target":34962
		},
		{
			"buffer":0,
			"byteLength":192,
			"byteOffset":469680,
			"target":34963
		},
		{
			"buffer":0,
			"byteLength":360,
			"byteOffset":469872,
			"target":34962
		},
		{
			"buffer":0,
			"byteLength":360,
			"byteOffset":470232,
			"target":34962
		},
		{
			"buffer":0,
			"byteLength":240,
			"byteOffset":470592,
			"target":34962
		},
		{
			"buffer":0,
			"byteLength":360,
			"byteOffset":470832,
			"target":34962
		},
		{
			"buffer":0,
			"byteLength":360,
			"byteOffset":471192,
			"target":34962
		},
		{
			"buffer":0,
			"byteLength":240,
			"byteOffset":471552,
			"target":34962
		},
		{
			"buffer":0,
			"byteLength":360,
			"byteOffset":471792,
			"target":34962
		},
		{
			"buffer":0,
			"byteLength":360,
			"byteOffset":472152,
			"target":34962
		},
		{
			"buffer":0,
			"byteLength":240,
			"byteOffset":472512,
			"target":34962
		},
		{
			"buffer":0,
			"byteLength":360,
			"byteOffset":472752,
			"target":34962
		},
		{
			"buffer":0,
			"byteLength":360,
			"byteOffset":473112,
			"target":34962
		},
		{
			"buffer":0,
			"byteLength":240,
			"byteOffset":473472,
			"target":34962
		},
		{
			"buffer":0,
			"byteLength":48,
			"byteOffset":473712,
			"target":34962
		},
		{
			"buffer":0,
			"byteLength":48,
			"byteOffset":473760,
			"target":34962
		},
		{
			"buffer":0,
			"byteLength":32,
			"byteOffset":473808,
			"target":34962
		},
		{
			"buffer":0,
			"byteLength":12,
			"byteOffset":473840,
			"target":34963
		}
	],
	"samplers":[
		{
			"magFilter":9728,
			"minFilter":9984
		},
		{
			"magFilter":9729,
			"minFilter":9987
		}
	],
	"buffers":[
		{
			"byteLength":473852,
			"uri":"Map.bin"
		}
	]
}
