{
	"asset":{
		"generator":"Khronos glTF Blender I/O v4.4.35",
		"version":"2.0"
	},
	"scene":0,
	"scenes":[
		{
			"name":"Scene",
			"nodes":[
				0
			]
		}
	],
	"nodes":[
		{
			"mesh":0,
			"name":"Map-col"
		}
	],
	"materials":[
		{
			"doubleSided":true,
			"name":"HD",
			"pbrMetallicRoughness":{
				"baseColorTexture":{
					"index":0
				},
				"metallicFactor":0
			}
		},
		{
			"doubleSided":true,
			"name":"SD",
			"pbrMetallicRoughness":{
				"baseColorTexture":{
					"index":1
				},
				"metallicFactor":0
			}
		},
		{
			"doubleSided":true,
			"name":"Outside",
			"pbrMetallicRoughness":{
				"baseColorTexture":{
					"index":2
				},
				"metallicFactor":0,
				"roughnessFactor":0.5
			}
		}
	],
	"meshes":[
		{
			"name":"Cube.002",
			"primitives":[
				{
					"attributes":{
						"POSITION":0,
						"NORMAL":1,
						"TEXCOORD_0":2
					},
					"indices":3,
					"material":0
				},
				{
					"attributes":{
						"POSITION":4,
						"NORMAL":5,
						"TEXCOORD_0":6
					},
					"indices":7,
					"material":1
				},
				{
					"attributes":{
						"POSITION":8,
						"NORMAL":9,
						"TEXCOORD_0":10
					},
					"indices":11,
					"material":2
				}
			]
		}
	],
	"textures":[
		{
			"sampler":0,
			"source":0
		},
		{
			"sampler":0,
			"source":1
		},
		{
			"sampler":1,
			"source":2
		}
	],
	"images":[
		{
			"mimeType":"image/png",
			"name":"TestureAtlas2",
			"uri":"../../textures/maro_kit/TestureAtlas2.png"
		},
		{
			"mimeType":"image/png",
			"name":"TestureAtlas1",
			"uri":"../../textures/maro_kit/TestureAtlas1.png"
		},
		{
			"mimeType":"image/jpeg",
			"name":"panel_k_v_noci",
			"uri":"../../textures/maro_kit/panel_k_v_noci.jpg"
		}
	],
	"accessors":[
		{
			"bufferView":0,
			"componentType":5126,
			"count":822,
			"max":[
				3.58536696434021,
				2.740000009536743,
				3.641608953475952
			],
			"min":[
				-3.58536696434021,
				-0.08521312475204468,
				-2.13645601272583
			],
			"type":"VEC3"
		},
		{
			"bufferView":1,
			"componentType":5126,
			"count":822,
			"type":"VEC3"
		},
		{
			"bufferView":2,
			"componentType":5126,
			"count":822,
			"type":"VEC2"
		},
		{
			"bufferView":3,
			"componentType":5123,
			"count":2586,
			"type":"SCALAR"
		},
		{
			"bufferView":4,
			"componentType":5126,
			"count":10599,
			"max":[
				3.5946130752563477,
				2.922508716583252,
				3.58536696434021
			],
			"min":[
				-3.601694345474243,
				-5.960464477539063e-08,
				-2.1437346935272217
			],
			"type":"VEC3"
		},
		{
			"bufferView":5,
			"componentType":5126,
			"count":10599,
			"type":"VEC3"
		},
		{
			"bufferView":6,
			"componentType":5126,
			"count":10599,
			"type":"VEC2"
		},
		{
			"bufferView":7,
			"componentType":5123,
			"count":18552,
			"type":"SCALAR"
		},
		{
			"bufferView":8,
			"componentType":5126,
			"count":14,
			"max":[
				12.81721019744873,
				13.182221412658691,
				26.145254135131836
			],
			"min":[
				-10.578864097595215,
				-10.213854789733887,
				2.749177932739258
			],
			"type":"VEC3"
		},
		{
			"bufferView":9,
			"componentType":5126,
			"count":14,
			"type":"VEC3"
		},
		{
			"bufferView":10,
			"componentType":5126,
			"count":14,
			"type":"VEC2"
		},
		{
			"bufferView":11,
			"componentType":5123,
			"count":30,
			"type":"SCALAR"
		}
	],
	"bufferViews":[
		{
			"buffer":0,
			"byteLength":9864,
			"byteOffset":0,
			"target":34962
		},
		{
			"buffer":0,
			"byteLength":9864,
			"byteOffset":9864,
			"target":34962
		},
		{
			"buffer":0,
			"byteLength":6576,
			"byteOffset":19728,
			"target":34962
		},
		{
			"buffer":0,
			"byteLength":5172,
			"byteOffset":26304,
			"target":34963
		},
		{
			"buffer":0,
			"byteLength":127188,
			"byteOffset":31476,
			"target":34962
		},
		{
			"buffer":0,
			"byteLength":127188,
			"byteOffset":158664,
			"target":34962
		},
		{
			"buffer":0,
			"byteLength":84792,
			"byteOffset":285852,
			"target":34962
		},
		{
			"buffer":0,
			"byteLength":37104,
			"byteOffset":370644,
			"target":34963
		},
		{
			"buffer":0,
			"byteLength":168,
			"byteOffset":407748,
			"target":34962
		},
		{
			"buffer":0,
			"byteLength":168,
			"byteOffset":407916,
			"target":34962
		},
		{
			"buffer":0,
			"byteLength":112,
			"byteOffset":408084,
			"target":34962
		},
		{
			"buffer":0,
			"byteLength":60,
			"byteOffset":408196,
			"target":34963
		}
	],
	"samplers":[
		{
			"magFilter":9728,
			"minFilter":9984
		},
		{
			"magFilter":9729,
			"minFilter":9987
		}
	],
	"buffers":[
		{
			"byteLength":408256,
			"uri":"Map.bin"
		}
	]
}
