{
	"asset":{
		"generator":"Khronos glTF Blender I/O v4.4.26",
		"version":"2.0"
	},
	"scene":0,
	"scenes":[
		{
			"name":"Scene",
			"nodes":[
				0,
				1,
				2,
				3,
				4,
				5,
				6,
				7,
				8,
				9,
				10,
				11,
				12,
				13,
				14,
				15,
				16,
				17
			]
		}
	],
	"nodes":[
		{
			"mesh":0,
			"name":"Map.002",
			"translation":[
				0.9033684730529785,
				1.441986083984375,
				0.34485721588134766
			]
		},
		{
			"mesh":1,
			"name":"Linka3-convcol",
			"translation":[
				-0.767977237701416,
				0.47499996423721313,
				-1.706510066986084
			]
		},
		{
			"mesh":2,
			"name":"Linka2-convcol",
			"translation":[
				-1.5727720260620117,
				0.47499990463256836,
				-1.7065105438232422
			]
		},
		{
			"mesh":3,
			"name":"Linka1-convcol",
			"translation":[
				-2.3775665760040283,
				0.47499990463256836,
				-1.7065095901489258
			]
		},
		{
			"mesh":4,
			"name":"Table-col",
			"translation":[
				1.119173526763916,
				1.4841833114624023,
				11.6110258102417
			]
		},
		{
			"mesh":5,
			"name":"TimberPile-convcol",
			"translation":[
				2.869551658630371,
				0.42924964427948,
				-1.8047332763671875
			]
		},
		{
			"mesh":6,
			"name":"Map.003",
			"rotation":[
				0,
				0.2588190734386444,
				0,
				0.965925931930542
			],
			"translation":[
				-2.457141637802124,
				0.32962262630462646,
				3.1099772453308105
			]
		},
		{
			"mesh":7,
			"name":"Map-col",
			"translation":[
				1.119173526763916,
				1.4841833114624023,
				11.6110258102417
			]
		},
		{
			"mesh":8,
			"name":"Map.004",
			"translation":[
				1.119173526763916,
				1.4841833114624023,
				11.6110258102417
			]
		},
		{
			"mesh":9,
			"name":"Map.007",
			"translation":[
				1.119173526763916,
				1.4841833114624023,
				11.6110258102417
			]
		},
		{
			"mesh":10,
			"name":"Map.006",
			"translation":[
				1.119173526763916,
				1.4841833114624023,
				11.6110258102417
			]
		},
		{
			"mesh":11,
			"name":"Map.005",
			"translation":[
				-2.972768783569336,
				0.5399304032325745,
				2.365321636199951
			]
		},
		{
			"mesh":12,
			"name":"Map.005-convcol.004",
			"translation":[
				1.119173526763916,
				1.4841833114624023,
				11.6110258102417
			]
		},
		{
			"mesh":13,
			"name":"Cube-colonly",
			"translation":[
				2.585366725921631,
				1.0038148164749146,
				1.9201126098632812
			]
		},
		{
			"mesh":14,
			"name":"Cube-colonly.001-convcolonly",
			"translation":[
				-2.585366725921631,
				1,
				2.5853662490844727
			]
		},
		{
			"mesh":15,
			"name":"Cube-colonly.001",
			"scale":[
				0.17306971549987793,
				0.17306971549987793,
				0.17306971549987793
			],
			"translation":[
				3.412297010421753,
				0.17688453197479248,
				0
			]
		},
		{
			"mesh":16,
			"name":"Map.010",
			"translation":[
				3.1636509895324707,
				-0.011265873908996582,
				-0.8642497062683105
			]
		},
		{
			"mesh":17,
			"name":"Map.005-convcol.001",
			"translation":[
				1.119173526763916,
				1.4841833114624023,
				11.6110258102417
			]
		}
	],
	"materials":[
		{
			"doubleSided":true,
			"name":"HD",
			"pbrMetallicRoughness":{
				"baseColorTexture":{
					"index":0
				},
				"metallicFactor":0
			}
		},
		{
			"doubleSided":true,
			"name":"SD",
			"pbrMetallicRoughness":{
				"baseColorTexture":{
					"index":1
				},
				"metallicFactor":0
			}
		}
	],
	"meshes":[
		{
			"name":"Cube.002",
			"primitives":[
				{
					"attributes":{
						"POSITION":0,
						"NORMAL":1,
						"TEXCOORD_0":2
					},
					"indices":3,
					"material":0
				},
				{
					"attributes":{
						"POSITION":4,
						"NORMAL":5,
						"TEXCOORD_0":6
					},
					"indices":7,
					"material":1
				}
			]
		},
		{
			"name":"Cube.029",
			"primitives":[
				{
					"attributes":{
						"POSITION":8,
						"NORMAL":9,
						"TEXCOORD_0":10
					},
					"indices":11,
					"material":1
				}
			]
		},
		{
			"name":"Cube.030",
			"primitives":[
				{
					"attributes":{
						"POSITION":12,
						"NORMAL":13,
						"TEXCOORD_0":14
					},
					"indices":15,
					"material":1
				}
			]
		},
		{
			"name":"Cube.031",
			"primitives":[
				{
					"attributes":{
						"POSITION":16,
						"NORMAL":17,
						"TEXCOORD_0":18
					},
					"indices":19,
					"material":1
				}
			]
		},
		{
			"name":"Cube.045",
			"primitives":[
				{
					"attributes":{
						"POSITION":20,
						"NORMAL":21,
						"TEXCOORD_0":22
					},
					"indices":23,
					"material":1
				}
			]
		},
		{
			"name":"Cube.046",
			"primitives":[
				{
					"attributes":{
						"POSITION":24,
						"NORMAL":25,
						"TEXCOORD_0":26
					},
					"indices":27,
					"material":1
				}
			]
		},
		{
			"name":"Cube.005",
			"primitives":[
				{
					"attributes":{
						"POSITION":28,
						"NORMAL":29,
						"TEXCOORD_0":30
					},
					"indices":31,
					"material":0
				}
			]
		},
		{
			"name":"Cube.007",
			"primitives":[
				{
					"attributes":{
						"POSITION":32,
						"NORMAL":33,
						"TEXCOORD_0":34
					},
					"indices":35,
					"material":0
				}
			]
		},
		{
			"name":"Cube.009",
			"primitives":[
				{
					"attributes":{
						"POSITION":36,
						"NORMAL":37,
						"TEXCOORD_0":38
					},
					"indices":39,
					"material":1
				}
			]
		},
		{
			"name":"Cube.010",
			"primitives":[
				{
					"attributes":{
						"POSITION":40,
						"NORMAL":41,
						"TEXCOORD_0":42
					},
					"indices":43,
					"material":1
				}
			]
		},
		{
			"name":"Cube.011",
			"primitives":[
				{
					"attributes":{
						"POSITION":44,
						"NORMAL":45,
						"TEXCOORD_0":46
					},
					"indices":47,
					"material":1
				}
			]
		},
		{
			"name":"Cube.013",
			"primitives":[
				{
					"attributes":{
						"POSITION":48,
						"NORMAL":49,
						"TEXCOORD_0":50
					},
					"indices":51,
					"material":1
				}
			]
		},
		{
			"name":"Cube.014",
			"primitives":[
				{
					"attributes":{
						"POSITION":52,
						"NORMAL":53,
						"TEXCOORD_0":54
					},
					"indices":31,
					"material":0
				}
			]
		},
		{
			"name":"Cube.017",
			"primitives":[
				{
					"attributes":{
						"POSITION":55,
						"NORMAL":56,
						"TEXCOORD_0":57
					},
					"indices":58
				}
			]
		},
		{
			"name":"Cube.020",
			"primitives":[
				{
					"attributes":{
						"POSITION":59,
						"NORMAL":60,
						"TEXCOORD_0":61
					},
					"indices":62
				}
			]
		},
		{
			"name":"Cube.022",
			"primitives":[
				{
					"attributes":{
						"POSITION":63,
						"NORMAL":64,
						"TEXCOORD_0":65
					},
					"indices":66
				}
			]
		},
		{
			"name":"Cube.038",
			"primitives":[
				{
					"attributes":{
						"POSITION":67,
						"NORMAL":68,
						"TEXCOORD_0":69
					},
					"indices":70,
					"material":0
				}
			]
		},
		{
			"name":"Cube.026",
			"primitives":[
				{
					"attributes":{
						"POSITION":71,
						"NORMAL":72,
						"TEXCOORD_0":73
					},
					"indices":74,
					"material":1
				}
			]
		}
	],
	"textures":[
		{
			"sampler":0,
			"source":0
		},
		{
			"sampler":0,
			"source":1
		}
	],
	"images":[
		{
			"mimeType":"image/png",
			"name":"TestureAtlas2",
			"uri":"../../textures/maro_kit/TestureAtlas2.png"
		},
		{
			"mimeType":"image/png",
			"name":"TestureAtlas1",
			"uri":"../../textures/maro_kit/TestureAtlas1.png"
		}
	],
	"accessors":[
		{
			"bufferView":0,
			"componentType":5126,
			"count":1877,
			"max":[
				2.666963577270508,
				0.6916653513908386,
				3.2680587768554688
			],
			"min":[
				-4.486141681671143,
				-1.4553864002227783,
				-2.4462156295776367
			],
			"type":"VEC3"
		},
		{
			"bufferView":1,
			"componentType":5126,
			"count":1877,
			"type":"VEC3"
		},
		{
			"bufferView":2,
			"componentType":5126,
			"count":1877,
			"type":"VEC2"
		},
		{
			"bufferView":3,
			"componentType":5123,
			"count":5820,
			"type":"SCALAR"
		},
		{
			"bufferView":4,
			"componentType":5126,
			"count":3225,
			"max":[
				2.6819982528686523,
				1.480522632598877,
				3.2514877319335938
			],
			"min":[
				-4.488735675811768,
				-1.441986083984375,
				-2.537282943725586
			],
			"type":"VEC3"
		},
		{
			"bufferView":5,
			"componentType":5126,
			"count":3225,
			"type":"VEC3"
		},
		{
			"bufferView":6,
			"componentType":5126,
			"count":3225,
			"type":"VEC2"
		},
		{
			"bufferView":7,
			"componentType":5123,
			"count":5979,
			"type":"SCALAR"
		},
		{
			"bufferView":8,
			"componentType":5126,
			"count":172,
			"max":[
				0.40239739418029785,
				0.47499996423721313,
				0.42994582653045654
			],
			"min":[
				-0.40239739418029785,
				-0.4749999940395355,
				-0.4299459457397461
			],
			"type":"VEC3"
		},
		{
			"bufferView":9,
			"componentType":5126,
			"count":172,
			"type":"VEC3"
		},
		{
			"bufferView":10,
			"componentType":5126,
			"count":172,
			"type":"VEC2"
		},
		{
			"bufferView":11,
			"componentType":5123,
			"count":282,
			"type":"SCALAR"
		},
		{
			"bufferView":12,
			"componentType":5126,
			"count":142,
			"max":[
				0.40239739418029785,
				0.4750000238418579,
				0.4299459457397461
			],
			"min":[
				-0.40239715576171875,
				-0.47499990463256836,
				-0.4299459457397461
			],
			"type":"VEC3"
		},
		{
			"bufferView":13,
			"componentType":5126,
			"count":142,
			"type":"VEC3"
		},
		{
			"bufferView":14,
			"componentType":5126,
			"count":142,
			"type":"VEC2"
		},
		{
			"bufferView":15,
			"componentType":5123,
			"count":228,
			"type":"SCALAR"
		},
		{
			"bufferView":16,
			"componentType":5126,
			"count":144,
			"max":[
				0.40239739418029785,
				0.4750000238418579,
				0.4299459457397461
			],
			"min":[
				-0.40239739418029785,
				-0.47499990463256836,
				-0.4299468994140625
			],
			"type":"VEC3"
		},
		{
			"bufferView":17,
			"componentType":5126,
			"count":144,
			"type":"VEC3"
		},
		{
			"bufferView":18,
			"componentType":5126,
			"count":144,
			"type":"VEC2"
		},
		{
			"bufferView":19,
			"componentType":5123,
			"count":234,
			"type":"SCALAR"
		},
		{
			"bufferView":20,
			"componentType":5126,
			"count":104,
			"max":[
				-3.012153387069702,
				-0.7341833114624023,
				-8.083887100219727
			],
			"min":[
				-4.612153053283691,
				-1.4841833114624023,
				-8.883888244628906
			],
			"type":"VEC3"
		},
		{
			"bufferView":21,
			"componentType":5126,
			"count":104,
			"type":"VEC3"
		},
		{
			"bufferView":22,
			"componentType":5126,
			"count":104,
			"type":"VEC2"
		},
		{
			"bufferView":23,
			"componentType":5123,
			"count":156,
			"type":"SCALAR"
		},
		{
			"bufferView":24,
			"componentType":5126,
			"count":5140,
			"max":[
				0.6992917060852051,
				0.42924964427948,
				0.3390016555786133
			],
			"min":[
				-0.6992917060852051,
				-0.42924964427948,
				-0.3390016555786133
			],
			"type":"VEC3"
		},
		{
			"bufferView":25,
			"componentType":5126,
			"count":5140,
			"type":"VEC3"
		},
		{
			"bufferView":26,
			"componentType":5126,
			"count":5140,
			"type":"VEC2"
		},
		{
			"bufferView":27,
			"componentType":5123,
			"count":7710,
			"type":"SCALAR"
		},
		{
			"bufferView":28,
			"componentType":5126,
			"count":20,
			"max":[
				0.0970613956451416,
				0.1111607551574707,
				0.14122962951660156
			],
			"min":[
				-0.0970613956451416,
				-0.1111607551574707,
				-0.14122962951660156
			],
			"type":"VEC3"
		},
		{
			"bufferView":29,
			"componentType":5126,
			"count":20,
			"type":"VEC3"
		},
		{
			"bufferView":30,
			"componentType":5126,
			"count":20,
			"type":"VEC2"
		},
		{
			"bufferView":31,
			"componentType":5123,
			"count":30,
			"type":"SCALAR"
		},
		{
			"bufferView":32,
			"componentType":5126,
			"count":84,
			"max":[
				2.466193199157715,
				1.2558166980743408,
				-8.025659561157227
			],
			"min":[
				-4.704540252685547,
				-1.5693964958190918,
				-13.747482299804688
			],
			"type":"VEC3"
		},
		{
			"bufferView":33,
			"componentType":5126,
			"count":84,
			"type":"VEC3"
		},
		{
			"bufferView":34,
			"componentType":5126,
			"count":84,
			"type":"VEC2"
		},
		{
			"bufferView":35,
			"componentType":5123,
			"count":186,
			"type":"SCALAR"
		},
		{
			"bufferView":36,
			"componentType":5126,
			"count":351,
			"max":[
				2.4126100540161133,
				-0.39051353931427,
				-9.497579574584961
			],
			"min":[
				0.36788463592529297,
				-1.4841833114624023,
				-10.514312744140625
			],
			"type":"VEC3"
		},
		{
			"bufferView":37,
			"componentType":5126,
			"count":351,
			"type":"VEC3"
		},
		{
			"bufferView":38,
			"componentType":5126,
			"count":351,
			"type":"VEC2"
		},
		{
			"bufferView":39,
			"componentType":5123,
			"count":822,
			"type":"SCALAR"
		},
		{
			"bufferView":40,
			"componentType":5126,
			"count":293,
			"max":[
				2.4754390716552734,
				-0.8212348222732544,
				-8.85123062133789
			],
			"min":[
				1.963271141052246,
				-1.4841831922531128,
				-9.44450855255127
			],
			"type":"VEC3"
		},
		{
			"bufferView":41,
			"componentType":5126,
			"count":293,
			"type":"VEC3"
		},
		{
			"bufferView":42,
			"componentType":5126,
			"count":293,
			"type":"VEC2"
		},
		{
			"bufferView":43,
			"componentType":5123,
			"count":462,
			"type":"SCALAR"
		},
		{
			"bufferView":44,
			"componentType":5126,
			"count":303,
			"max":[
				0.2462759017944336,
				-0.8212348222732544,
				-10.049755096435547
			],
			"min":[
				-0.6968100070953369,
				-1.4841831922531128,
				-10.56192398071289
			],
			"type":"VEC3"
		},
		{
			"bufferView":45,
			"componentType":5126,
			"count":303,
			"type":"VEC3"
		},
		{
			"bufferView":46,
			"componentType":5126,
			"count":303,
			"type":"VEC2"
		},
		{
			"bufferView":47,
			"componentType":5123,
			"count":462,
			"type":"SCALAR"
		},
		{
			"bufferView":48,
			"componentType":5126,
			"count":599,
			"max":[
				0.290935754776001,
				0.48900824785232544,
				0.31224822998046875
			],
			"min":[
				-0.2909359931945801,
				-0.48900824785232544,
				-0.31224822998046875
			],
			"type":"VEC3"
		},
		{
			"bufferView":49,
			"componentType":5126,
			"count":599,
			"type":"VEC3"
		},
		{
			"bufferView":50,
			"componentType":5126,
			"count":599,
			"type":"VEC2"
		},
		{
			"bufferView":51,
			"componentType":5123,
			"count":972,
			"type":"SCALAR"
		},
		{
			"bufferView":52,
			"componentType":5126,
			"count":20,
			"max":[
				-2.681680917739868,
				-1.0226325988769531,
				-8.255012512207031
			],
			"min":[
				-3.022190570831299,
				-1.4841831922531128,
				-8.841411590576172
			],
			"type":"VEC3"
		},
		{
			"bufferView":53,
			"componentType":5126,
			"count":20,
			"type":"VEC3"
		},
		{
			"bufferView":54,
			"componentType":5126,
			"count":20,
			"type":"VEC2"
		},
		{
			"bufferView":55,
			"componentType":5126,
			"count":58,
			"max":[
				1,
				-0.3576010465621948,
				0.8396825790405273
			],
			"min":[
				-2.1999995708465576,
				-1,
				-0.8768863677978516
			],
			"type":"VEC3"
		},
		{
			"bufferView":56,
			"componentType":5126,
			"count":58,
			"type":"VEC3"
		},
		{
			"bufferView":57,
			"componentType":5126,
			"count":58,
			"type":"VEC2"
		},
		{
			"bufferView":58,
			"componentType":5123,
			"count":108,
			"type":"SCALAR"
		},
		{
			"bufferView":59,
			"componentType":5126,
			"count":30,
			"max":[
				0.11920130252838135,
				-0.4046744406223297,
				1
			],
			"min":[
				-1,
				-1,
				-0.45931750535964966
			],
			"type":"VEC3"
		},
		{
			"bufferView":60,
			"componentType":5126,
			"count":30,
			"type":"VEC3"
		},
		{
			"bufferView":61,
			"componentType":5126,
			"count":30,
			"type":"VEC2"
		},
		{
			"bufferView":62,
			"componentType":5123,
			"count":48,
			"type":"SCALAR"
		},
		{
			"bufferView":63,
			"componentType":5126,
			"count":24,
			"max":[
				1,
				2.808485507965088,
				1.4638404846191406
			],
			"min":[
				-4.895512580871582,
				-1,
				-1.2795027494430542
			],
			"type":"VEC3"
		},
		{
			"bufferView":64,
			"componentType":5126,
			"count":24,
			"type":"VEC3"
		},
		{
			"bufferView":65,
			"componentType":5126,
			"count":24,
			"type":"VEC2"
		},
		{
			"bufferView":66,
			"componentType":5123,
			"count":36,
			"type":"SCALAR"
		},
		{
			"bufferView":67,
			"componentType":5126,
			"count":20,
			"max":[
				0.3045358657836914,
				0.02727067470550537,
				0.4361443519592285
			],
			"min":[
				-0.3045358657836914,
				-0.02727067470550537,
				-0.4361443519592285
			],
			"type":"VEC3"
		},
		{
			"bufferView":68,
			"componentType":5126,
			"count":20,
			"type":"VEC3"
		},
		{
			"bufferView":69,
			"componentType":5126,
			"count":20,
			"type":"VEC2"
		},
		{
			"bufferView":70,
			"componentType":5123,
			"count":30,
			"type":"SCALAR"
		},
		{
			"bufferView":71,
			"componentType":5126,
			"count":70,
			"max":[
				-2.3969879150390625,
				-0.909512996673584,
				-8.073343276977539
			],
			"min":[
				-2.807861328125,
				-1.4841833114624023,
				-8.473915100097656
			],
			"type":"VEC3"
		},
		{
			"bufferView":72,
			"componentType":5126,
			"count":70,
			"type":"VEC3"
		},
		{
			"bufferView":73,
			"componentType":5126,
			"count":70,
			"type":"VEC2"
		},
		{
			"bufferView":74,
			"componentType":5123,
			"count":183,
			"type":"SCALAR"
		}
	],
	"bufferViews":[
		{
			"buffer":0,
			"byteLength":22524,
			"byteOffset":0,
			"target":34962
		},
		{
			"buffer":0,
			"byteLength":22524,
			"byteOffset":22524,
			"target":34962
		},
		{
			"buffer":0,
			"byteLength":15016,
			"byteOffset":45048,
			"target":34962
		},
		{
			"buffer":0,
			"byteLength":11640,
			"byteOffset":60064,
			"target":34963
		},
		{
			"buffer":0,
			"byteLength":38700,
			"byteOffset":71704,
			"target":34962
		},
		{
			"buffer":0,
			"byteLength":38700,
			"byteOffset":110404,
			"target":34962
		},
		{
			"buffer":0,
			"byteLength":25800,
			"byteOffset":149104,
			"target":34962
		},
		{
			"buffer":0,
			"byteLength":11958,
			"byteOffset":174904,
			"target":34963
		},
		{
			"buffer":0,
			"byteLength":2064,
			"byteOffset":186864,
			"target":34962
		},
		{
			"buffer":0,
			"byteLength":2064,
			"byteOffset":188928,
			"target":34962
		},
		{
			"buffer":0,
			"byteLength":1376,
			"byteOffset":190992,
			"target":34962
		},
		{
			"buffer":0,
			"byteLength":564,
			"byteOffset":192368,
			"target":34963
		},
		{
			"buffer":0,
			"byteLength":1704,
			"byteOffset":192932,
			"target":34962
		},
		{
			"buffer":0,
			"byteLength":1704,
			"byteOffset":194636,
			"target":34962
		},
		{
			"buffer":0,
			"byteLength":1136,
			"byteOffset":196340,
			"target":34962
		},
		{
			"buffer":0,
			"byteLength":456,
			"byteOffset":197476,
			"target":34963
		},
		{
			"buffer":0,
			"byteLength":1728,
			"byteOffset":197932,
			"target":34962
		},
		{
			"buffer":0,
			"byteLength":1728,
			"byteOffset":199660,
			"target":34962
		},
		{
			"buffer":0,
			"byteLength":1152,
			"byteOffset":201388,
			"target":34962
		},
		{
			"buffer":0,
			"byteLength":468,
			"byteOffset":202540,
			"target":34963
		},
		{
			"buffer":0,
			"byteLength":1248,
			"byteOffset":203008,
			"target":34962
		},
		{
			"buffer":0,
			"byteLength":1248,
			"byteOffset":204256,
			"target":34962
		},
		{
			"buffer":0,
			"byteLength":832,
			"byteOffset":205504,
			"target":34962
		},
		{
			"buffer":0,
			"byteLength":312,
			"byteOffset":206336,
			"target":34963
		},
		{
			"buffer":0,
			"byteLength":61680,
			"byteOffset":206648,
			"target":34962
		},
		{
			"buffer":0,
			"byteLength":61680,
			"byteOffset":268328,
			"target":34962
		},
		{
			"buffer":0,
			"byteLength":41120,
			"byteOffset":330008,
			"target":34962
		},
		{
			"buffer":0,
			"byteLength":15420,
			"byteOffset":371128,
			"target":34963
		},
		{
			"buffer":0,
			"byteLength":240,
			"byteOffset":386548,
			"target":34962
		},
		{
			"buffer":0,
			"byteLength":240,
			"byteOffset":386788,
			"target":34962
		},
		{
			"buffer":0,
			"byteLength":160,
			"byteOffset":387028,
			"target":34962
		},
		{
			"buffer":0,
			"byteLength":60,
			"byteOffset":387188,
			"target":34963
		},
		{
			"buffer":0,
			"byteLength":1008,
			"byteOffset":387248,
			"target":34962
		},
		{
			"buffer":0,
			"byteLength":1008,
			"byteOffset":388256,
			"target":34962
		},
		{
			"buffer":0,
			"byteLength":672,
			"byteOffset":389264,
			"target":34962
		},
		{
			"buffer":0,
			"byteLength":372,
			"byteOffset":389936,
			"target":34963
		},
		{
			"buffer":0,
			"byteLength":4212,
			"byteOffset":390308,
			"target":34962
		},
		{
			"buffer":0,
			"byteLength":4212,
			"byteOffset":394520,
			"target":34962
		},
		{
			"buffer":0,
			"byteLength":2808,
			"byteOffset":398732,
			"target":34962
		},
		{
			"buffer":0,
			"byteLength":1644,
			"byteOffset":401540,
			"target":34963
		},
		{
			"buffer":0,
			"byteLength":3516,
			"byteOffset":403184,
			"target":34962
		},
		{
			"buffer":0,
			"byteLength":3516,
			"byteOffset":406700,
			"target":34962
		},
		{
			"buffer":0,
			"byteLength":2344,
			"byteOffset":410216,
			"target":34962
		},
		{
			"buffer":0,
			"byteLength":924,
			"byteOffset":412560,
			"target":34963
		},
		{
			"buffer":0,
			"byteLength":3636,
			"byteOffset":413484,
			"target":34962
		},
		{
			"buffer":0,
			"byteLength":3636,
			"byteOffset":417120,
			"target":34962
		},
		{
			"buffer":0,
			"byteLength":2424,
			"byteOffset":420756,
			"target":34962
		},
		{
			"buffer":0,
			"byteLength":924,
			"byteOffset":423180,
			"target":34963
		},
		{
			"buffer":0,
			"byteLength":7188,
			"byteOffset":424104,
			"target":34962
		},
		{
			"buffer":0,
			"byteLength":7188,
			"byteOffset":431292,
			"target":34962
		},
		{
			"buffer":0,
			"byteLength":4792,
			"byteOffset":438480,
			"target":34962
		},
		{
			"buffer":0,
			"byteLength":1944,
			"byteOffset":443272,
			"target":34963
		},
		{
			"buffer":0,
			"byteLength":240,
			"byteOffset":445216,
			"target":34962
		},
		{
			"buffer":0,
			"byteLength":240,
			"byteOffset":445456,
			"target":34962
		},
		{
			"buffer":0,
			"byteLength":160,
			"byteOffset":445696,
			"target":34962
		},
		{
			"buffer":0,
			"byteLength":696,
			"byteOffset":445856,
			"target":34962
		},
		{
			"buffer":0,
			"byteLength":696,
			"byteOffset":446552,
			"target":34962
		},
		{
			"buffer":0,
			"byteLength":464,
			"byteOffset":447248,
			"target":34962
		},
		{
			"buffer":0,
			"byteLength":216,
			"byteOffset":447712,
			"target":34963
		},
		{
			"buffer":0,
			"byteLength":360,
			"byteOffset":447928,
			"target":34962
		},
		{
			"buffer":0,
			"byteLength":360,
			"byteOffset":448288,
			"target":34962
		},
		{
			"buffer":0,
			"byteLength":240,
			"byteOffset":448648,
			"target":34962
		},
		{
			"buffer":0,
			"byteLength":96,
			"byteOffset":448888,
			"target":34963
		},
		{
			"buffer":0,
			"byteLength":288,
			"byteOffset":448984,
			"target":34962
		},
		{
			"buffer":0,
			"byteLength":288,
			"byteOffset":449272,
			"target":34962
		},
		{
			"buffer":0,
			"byteLength":192,
			"byteOffset":449560,
			"target":34962
		},
		{
			"buffer":0,
			"byteLength":72,
			"byteOffset":449752,
			"target":34963
		},
		{
			"buffer":0,
			"byteLength":240,
			"byteOffset":449824,
			"target":34962
		},
		{
			"buffer":0,
			"byteLength":240,
			"byteOffset":450064,
			"target":34962
		},
		{
			"buffer":0,
			"byteLength":160,
			"byteOffset":450304,
			"target":34962
		},
		{
			"buffer":0,
			"byteLength":60,
			"byteOffset":450464,
			"target":34963
		},
		{
			"buffer":0,
			"byteLength":840,
			"byteOffset":450524,
			"target":34962
		},
		{
			"buffer":0,
			"byteLength":840,
			"byteOffset":451364,
			"target":34962
		},
		{
			"buffer":0,
			"byteLength":560,
			"byteOffset":452204,
			"target":34962
		},
		{
			"buffer":0,
			"byteLength":366,
			"byteOffset":452764,
			"target":34963
		}
	],
	"samplers":[
		{
			"magFilter":9728,
			"minFilter":9984
		}
	],
	"buffers":[
		{
			"byteLength":453132,
			"uri":"Map.bin"
		}
	]
}
