{
	"asset":{
		"generator":"Khronos glTF Blender I/O v4.4.35",
		"version":"2.0"
	},
	"scene":0,
	"scenes":[
		{
			"name":"Scene",
			"nodes":[
				0
			]
		}
	],
	"nodes":[
		{
			"mesh":0,
			"name":"Map-col"
		}
	],
	"materials":[
		{
			"doubleSided":true,
			"name":"HD",
			"pbrMetallicRoughness":{
				"baseColorTexture":{
					"index":0
				},
				"metallicFactor":0
			}
		},
		{
			"doubleSided":true,
			"name":"SD",
			"pbrMetallicRoughness":{
				"baseColorTexture":{
					"index":1
				},
				"metallicFactor":0
			}
		},
		{
			"doubleSided":true,
			"name":"Outside",
			"pbrMetallicRoughness":{
				"baseColorTexture":{
					"index":2
				},
				"metallicFactor":0,
				"roughnessFactor":0.5
			}
		}
	],
	"meshes":[
		{
			"name":"Cube.002",
			"primitives":[
				{
					"attributes":{
						"POSITION":0,
						"NORMAL":1,
						"TEXCOORD_0":2
					},
					"indices":3,
					"material":0
				},
				{
					"attributes":{
						"POSITION":4,
						"NORMAL":5,
						"TEXCOORD_0":6
					},
					"indices":7,
					"material":1
				},
				{
					"attributes":{
						"POSITION":8,
						"NORMAL":9,
						"TEXCOORD_0":10
					},
					"indices":11,
					"material":2
				}
			]
		}
	],
	"textures":[
		{
			"sampler":0,
			"source":0
		},
		{
			"sampler":0,
			"source":1
		},
		{
			"sampler":1,
			"source":2
		}
	],
	"images":[
		{
			"mimeType":"image/png",
			"name":"TestureAtlas2",
			"uri":"../../textures/maro_kit/TestureAtlas2.png"
		},
		{
			"mimeType":"image/png",
			"name":"TestureAtlas1",
			"uri":"../../textures/maro_kit/TestureAtlas1.png"
		},
		{
			"mimeType":"image/jpeg",
			"name":"panel_k_v_noci",
			"uri":"../../textures/maro_kit/panel_k_v_noci.jpg"
		}
	],
	"accessors":[
		{
			"bufferView":0,
			"componentType":5126,
			"count":1028,
			"max":[
				3.585366725921631,
				2.740000009536743,
				3.6129162311553955
			],
			"min":[
				-3.58536696434021,
				-0.08521312475204468,
				-2.13645601272583
			],
			"type":"VEC3"
		},
		{
			"bufferView":1,
			"componentType":5126,
			"count":1028,
			"type":"VEC3"
		},
		{
			"bufferView":2,
			"componentType":5126,
			"count":1028,
			"type":"VEC2"
		},
		{
			"bufferView":3,
			"componentType":5123,
			"count":2814,
			"type":"SCALAR"
		},
		{
			"bufferView":4,
			"componentType":5126,
			"count":11556,
			"max":[
				3.5946125984191895,
				2.922508716583252,
				3.5963449478149414
			],
			"min":[
				-3.585367202758789,
				-5.960464477539063e-08,
				-2.192425489425659
			],
			"type":"VEC3"
		},
		{
			"bufferView":5,
			"componentType":5126,
			"count":11556,
			"type":"VEC3"
		},
		{
			"bufferView":6,
			"componentType":5126,
			"count":11556,
			"type":"VEC2"
		},
		{
			"bufferView":7,
			"componentType":5123,
			"count":19308,
			"type":"SCALAR"
		},
		{
			"bufferView":8,
			"componentType":5126,
			"count":16,
			"max":[
				12.817211151123047,
				13.182221412658691,
				26.145254135131836
			],
			"min":[
				-10.578864097595215,
				-10.213854789733887,
				2.749177932739258
			],
			"type":"VEC3"
		},
		{
			"bufferView":9,
			"componentType":5126,
			"count":16,
			"type":"VEC3"
		},
		{
			"bufferView":10,
			"componentType":5126,
			"count":16,
			"type":"VEC2"
		},
		{
			"bufferView":11,
			"componentType":5123,
			"count":30,
			"type":"SCALAR"
		}
	],
	"bufferViews":[
		{
			"buffer":0,
			"byteLength":12336,
			"byteOffset":0,
			"target":34962
		},
		{
			"buffer":0,
			"byteLength":12336,
			"byteOffset":12336,
			"target":34962
		},
		{
			"buffer":0,
			"byteLength":8224,
			"byteOffset":24672,
			"target":34962
		},
		{
			"buffer":0,
			"byteLength":5628,
			"byteOffset":32896,
			"target":34963
		},
		{
			"buffer":0,
			"byteLength":138672,
			"byteOffset":38524,
			"target":34962
		},
		{
			"buffer":0,
			"byteLength":138672,
			"byteOffset":177196,
			"target":34962
		},
		{
			"buffer":0,
			"byteLength":92448,
			"byteOffset":315868,
			"target":34962
		},
		{
			"buffer":0,
			"byteLength":38616,
			"byteOffset":408316,
			"target":34963
		},
		{
			"buffer":0,
			"byteLength":192,
			"byteOffset":446932,
			"target":34962
		},
		{
			"buffer":0,
			"byteLength":192,
			"byteOffset":447124,
			"target":34962
		},
		{
			"buffer":0,
			"byteLength":128,
			"byteOffset":447316,
			"target":34962
		},
		{
			"buffer":0,
			"byteLength":60,
			"byteOffset":447444,
			"target":34963
		}
	],
	"samplers":[
		{
			"magFilter":9728,
			"minFilter":9984
		},
		{
			"magFilter":9729,
			"minFilter":9987
		}
	],
	"buffers":[
		{
			"byteLength":447504,
			"uri":"Map.bin"
		}
	]
}
