{
	"asset":{
		"generator":"Khronos glTF Blender I/O v4.4.35",
		"version":"2.0"
	},
	"scene":0,
	"scenes":[
		{
			"name":"Scene",
			"nodes":[
				0,
				1,
				2,
				3
			]
		}
	],
	"nodes":[
		{
			"mesh":0,
			"name":"Map-col",
			"translation":[
				1.119173526763916,
				1.4841833114624023,
				11.6110258102417
			]
		},
		{
			"mesh":1,
			"name":"Linka3-convcol",
			"translation":[
				-0.767977237701416,
				0.47499996423721313,
				-1.706510066986084
			]
		},
		{
			"mesh":2,
			"name":"Linka2-convcol",
			"translation":[
				-1.5727720260620117,
				0.47499990463256836,
				-1.7065105438232422
			]
		},
		{
			"mesh":3,
			"name":"Linka1-convcol",
			"translation":[
				-2.3775665760040283,
				0.47499990463256836,
				-1.7065095901489258
			]
		}
	],
	"materials":[
		{
			"doubleSided":true,
			"name":"HD",
			"pbrMetallicRoughness":{
				"baseColorTexture":{
					"index":0
				},
				"metallicFactor":0
			}
		},
		{
			"doubleSided":true,
			"name":"SD",
			"pbrMetallicRoughness":{
				"baseColorTexture":{
					"index":1
				},
				"metallicFactor":0
			}
		},
		{
			"doubleSided":true,
			"name":"Outside",
			"pbrMetallicRoughness":{
				"baseColorTexture":{
					"index":2
				},
				"metallicFactor":0,
				"roughnessFactor":0.5
			}
		}
	],
	"meshes":[
		{
			"name":"Cube.002",
			"primitives":[
				{
					"attributes":{
						"POSITION":0,
						"NORMAL":1,
						"TEXCOORD_0":2
					},
					"indices":3,
					"material":0
				},
				{
					"attributes":{
						"POSITION":4,
						"NORMAL":5,
						"TEXCOORD_0":6
					},
					"indices":7,
					"material":1
				},
				{
					"attributes":{
						"POSITION":8,
						"NORMAL":9,
						"TEXCOORD_0":10
					},
					"indices":11,
					"material":2
				}
			]
		},
		{
			"name":"Cube.029",
			"primitives":[
				{
					"attributes":{
						"POSITION":12,
						"NORMAL":13,
						"TEXCOORD_0":14
					},
					"indices":15,
					"material":1
				}
			]
		},
		{
			"name":"Cube.030",
			"primitives":[
				{
					"attributes":{
						"POSITION":16,
						"NORMAL":17,
						"TEXCOORD_0":18
					},
					"indices":19,
					"material":1
				}
			]
		},
		{
			"name":"Cube.031",
			"primitives":[
				{
					"attributes":{
						"POSITION":20,
						"NORMAL":21,
						"TEXCOORD_0":22
					},
					"indices":23,
					"material":1
				}
			]
		}
	],
	"textures":[
		{
			"sampler":0,
			"source":0
		},
		{
			"sampler":0,
			"source":1
		},
		{
			"sampler":1,
			"source":2
		}
	],
	"images":[
		{
			"mimeType":"image/png",
			"name":"TestureAtlas2",
			"uri":"../../textures/maro_kit/TestureAtlas2.png"
		},
		{
			"mimeType":"image/png",
			"name":"TestureAtlas1",
			"uri":"../../textures/maro_kit/TestureAtlas1.png"
		},
		{
			"mimeType":"image/jpeg",
			"name":"panel_k_v_noci",
			"uri":"../../textures/maro_kit/panel_k_v_noci.jpg"
		}
	],
	"accessors":[
		{
			"bufferView":0,
			"componentType":5126,
			"count":1035,
			"max":[
				4.27293062210083,
				1.2558166980743408,
				-7.998109817504883
			],
			"min":[
				-4.704540252685547,
				-1.5693964958190918,
				-14.534228324890137
			],
			"type":"VEC3"
		},
		{
			"bufferView":1,
			"componentType":5126,
			"count":1035,
			"type":"VEC3"
		},
		{
			"bufferView":2,
			"componentType":5126,
			"count":1035,
			"type":"VEC2"
		},
		{
			"bufferView":3,
			"componentType":5123,
			"count":2826,
			"type":"SCALAR"
		},
		{
			"bufferView":4,
			"componentType":5126,
			"count":10980,
			"max":[
				2.4754390716552734,
				1.4383254051208496,
				-8.014680862426758
			],
			"min":[
				-4.704540729522705,
				-1.4841833114624023,
				-13.803451538085938
			],
			"type":"VEC3"
		},
		{
			"bufferView":5,
			"componentType":5126,
			"count":10980,
			"type":"VEC3"
		},
		{
			"bufferView":6,
			"componentType":5126,
			"count":10980,
			"type":"VEC2"
		},
		{
			"bufferView":7,
			"componentType":5123,
			"count":18384,
			"type":"SCALAR"
		},
		{
			"bufferView":8,
			"componentType":5126,
			"count":16,
			"max":[
				11.698038101196289,
				11.698038101196289,
				14.534228324890137
			],
			"min":[
				-11.698038101196289,
				-11.698038101196289,
				-8.861847877502441
			],
			"type":"VEC3"
		},
		{
			"bufferView":9,
			"componentType":5126,
			"count":16,
			"type":"VEC3"
		},
		{
			"bufferView":10,
			"componentType":5126,
			"count":16,
			"type":"VEC2"
		},
		{
			"bufferView":11,
			"componentType":5123,
			"count":30,
			"type":"SCALAR"
		},
		{
			"bufferView":12,
			"componentType":5126,
			"count":176,
			"max":[
				0.40239739418029785,
				0.47499996423721313,
				0.42994582653045654
			],
			"min":[
				-0.40239739418029785,
				-0.4749999940395355,
				-0.4299459457397461
			],
			"type":"VEC3"
		},
		{
			"bufferView":13,
			"componentType":5126,
			"count":176,
			"type":"VEC3"
		},
		{
			"bufferView":14,
			"componentType":5126,
			"count":176,
			"type":"VEC2"
		},
		{
			"bufferView":15,
			"componentType":5123,
			"count":288,
			"type":"SCALAR"
		},
		{
			"bufferView":16,
			"componentType":5126,
			"count":150,
			"max":[
				0.40239739418029785,
				0.4750000238418579,
				0.4299459457397461
			],
			"min":[
				-0.40239715576171875,
				-0.47499990463256836,
				-0.4299459457397461
			],
			"type":"VEC3"
		},
		{
			"bufferView":17,
			"componentType":5126,
			"count":150,
			"type":"VEC3"
		},
		{
			"bufferView":18,
			"componentType":5126,
			"count":150,
			"type":"VEC2"
		},
		{
			"bufferView":19,
			"componentType":5123,
			"count":240,
			"type":"SCALAR"
		},
		{
			"bufferView":20,
			"componentType":5126,
			"count":148,
			"max":[
				0.40239739418029785,
				0.4750000238418579,
				0.4299459457397461
			],
			"min":[
				-0.40239739418029785,
				-0.47499990463256836,
				-0.4299468994140625
			],
			"type":"VEC3"
		},
		{
			"bufferView":21,
			"componentType":5126,
			"count":148,
			"type":"VEC3"
		},
		{
			"bufferView":22,
			"componentType":5126,
			"count":148,
			"type":"VEC2"
		},
		{
			"bufferView":23,
			"componentType":5123,
			"count":240,
			"type":"SCALAR"
		}
	],
	"bufferViews":[
		{
			"buffer":0,
			"byteLength":12420,
			"byteOffset":0,
			"target":34962
		},
		{
			"buffer":0,
			"byteLength":12420,
			"byteOffset":12420,
			"target":34962
		},
		{
			"buffer":0,
			"byteLength":8280,
			"byteOffset":24840,
			"target":34962
		},
		{
			"buffer":0,
			"byteLength":5652,
			"byteOffset":33120,
			"target":34963
		},
		{
			"buffer":0,
			"byteLength":131760,
			"byteOffset":38772,
			"target":34962
		},
		{
			"buffer":0,
			"byteLength":131760,
			"byteOffset":170532,
			"target":34962
		},
		{
			"buffer":0,
			"byteLength":87840,
			"byteOffset":302292,
			"target":34962
		},
		{
			"buffer":0,
			"byteLength":36768,
			"byteOffset":390132,
			"target":34963
		},
		{
			"buffer":0,
			"byteLength":192,
			"byteOffset":426900,
			"target":34962
		},
		{
			"buffer":0,
			"byteLength":192,
			"byteOffset":427092,
			"target":34962
		},
		{
			"buffer":0,
			"byteLength":128,
			"byteOffset":427284,
			"target":34962
		},
		{
			"buffer":0,
			"byteLength":60,
			"byteOffset":427412,
			"target":34963
		},
		{
			"buffer":0,
			"byteLength":2112,
			"byteOffset":427472,
			"target":34962
		},
		{
			"buffer":0,
			"byteLength":2112,
			"byteOffset":429584,
			"target":34962
		},
		{
			"buffer":0,
			"byteLength":1408,
			"byteOffset":431696,
			"target":34962
		},
		{
			"buffer":0,
			"byteLength":576,
			"byteOffset":433104,
			"target":34963
		},
		{
			"buffer":0,
			"byteLength":1800,
			"byteOffset":433680,
			"target":34962
		},
		{
			"buffer":0,
			"byteLength":1800,
			"byteOffset":435480,
			"target":34962
		},
		{
			"buffer":0,
			"byteLength":1200,
			"byteOffset":437280,
			"target":34962
		},
		{
			"buffer":0,
			"byteLength":480,
			"byteOffset":438480,
			"target":34963
		},
		{
			"buffer":0,
			"byteLength":1776,
			"byteOffset":438960,
			"target":34962
		},
		{
			"buffer":0,
			"byteLength":1776,
			"byteOffset":440736,
			"target":34962
		},
		{
			"buffer":0,
			"byteLength":1184,
			"byteOffset":442512,
			"target":34962
		},
		{
			"buffer":0,
			"byteLength":480,
			"byteOffset":443696,
			"target":34963
		}
	],
	"samplers":[
		{
			"magFilter":9728,
			"minFilter":9984
		},
		{
			"magFilter":9729,
			"minFilter":9987
		}
	],
	"buffers":[
		{
			"byteLength":444176,
			"uri":"Map.bin"
		}
	]
}
