{
	"asset":{
		"generator":"Khronos glTF Blender I/O v4.4.35",
		"version":"2.0"
	},
	"scene":0,
	"scenes":[
		{
			"name":"Scene",
			"nodes":[
				0
			]
		}
	],
	"nodes":[
		{
			"mesh":0,
			"name":"Map",
			"rotation":[
				0,
				0.3566908836364746,
				0,
				0.9342224597930908
			],
			"scale":[
				0.9471876621246338,
				0.9471876621246338,
				0.9471876621246338
			]
		}
	],
	"materials":[
		{
			"doubleSided":true,
			"name":"Skybox",
			"pbrMetallicRoughness":{
				"baseColorTexture":{
					"index":0
				},
				"metallicFactor":0,
				"roughnessFactor":0.5
			}
		}
	],
	"meshes":[
		{
			"name":"Cube.034",
			"primitives":[
				{
					"attributes":{
						"POSITION":0,
						"NORMAL":1,
						"TEXCOORD_0":2
					},
					"indices":3,
					"material":0
				}
			]
		}
	],
	"textures":[
		{
			"sampler":0,
			"source":0
		}
	],
	"images":[
		{
			"mimeType":"image/png",
			"name":"industrial_sunset_puresky_1k",
			"uri":"../../textures/maro_kit/industrial_sunset_puresky_1k.png"
		}
	],
	"accessors":[
		{
			"bufferView":0,
			"componentType":5126,
			"count":346,
			"max":[
				252.99826049804688,
				215.87535095214844,
				252.99826049804688
			],
			"min":[
				-252.99827575683594,
				-290.9142150878906,
				-252.99830627441406
			],
			"type":"VEC3"
		},
		{
			"bufferView":1,
			"componentType":5126,
			"count":346,
			"type":"VEC3"
		},
		{
			"bufferView":2,
			"componentType":5126,
			"count":346,
			"type":"VEC2"
		},
		{
			"bufferView":3,
			"componentType":5123,
			"count":480,
			"type":"SCALAR"
		}
	],
	"bufferViews":[
		{
			"buffer":0,
			"byteLength":4152,
			"byteOffset":0,
			"target":34962
		},
		{
			"buffer":0,
			"byteLength":4152,
			"byteOffset":4152,
			"target":34962
		},
		{
			"buffer":0,
			"byteLength":2768,
			"byteOffset":8304,
			"target":34962
		},
		{
			"buffer":0,
			"byteLength":960,
			"byteOffset":11072,
			"target":34963
		}
	],
	"samplers":[
		{
			"magFilter":9729,
			"minFilter":9987
		}
	],
	"buffers":[
		{
			"byteLength":12032,
			"uri":"MapSkyBox.bin"
		}
	]
}
