{
	"asset":{
		"generator":"Khronos glTF Blender I/O v4.4.35",
		"version":"2.0"
	},
	"scene":0,
	"scenes":[
		{
			"name":"Scene",
			"nodes":[
				0
			]
		}
	],
	"nodes":[
		{
			"mesh":0,
			"name":"PeepHole"
		}
	],
	"materials":[
		{
			"doubleSided":true,
			"name":"SD",
			"pbrMetallicRoughness":{
				"baseColorTexture":{
					"index":0
				},
				"metallicFactor":0
			}
		}
	],
	"meshes":[
		{
			"name":"Cube.044",
			"primitives":[
				{
					"attributes":{
						"POSITION":0,
						"NORMAL":1,
						"TEXCOORD_0":2
					},
					"indices":3,
					"material":0
				}
			]
		}
	],
	"textures":[
		{
			"sampler":0,
			"source":0
		}
	],
	"images":[
		{
			"mimeType":"image/png",
			"name":"TestureAtlas1",
			"uri":"../../textures/maro_kit/TestureAtlas1.png"
		}
	],
	"accessors":[
		{
			"bufferView":0,
			"componentType":5126,
			"count":107,
			"max":[
				0.029512405395507812,
				0.0481107234954834,
				0.0481109619140625
			],
			"min":[
				-0.029512405395507812,
				-0.0481107234954834,
				-0.0481109619140625
			],
			"type":"VEC3"
		},
		{
			"bufferView":1,
			"componentType":5126,
			"count":107,
			"type":"VEC3"
		},
		{
			"bufferView":2,
			"componentType":5126,
			"count":107,
			"type":"VEC2"
		},
		{
			"bufferView":3,
			"componentType":5123,
			"count":162,
			"type":"SCALAR"
		}
	],
	"bufferViews":[
		{
			"buffer":0,
			"byteLength":1284,
			"byteOffset":0,
			"target":34962
		},
		{
			"buffer":0,
			"byteLength":1284,
			"byteOffset":1284,
			"target":34962
		},
		{
			"buffer":0,
			"byteLength":856,
			"byteOffset":2568,
			"target":34962
		},
		{
			"buffer":0,
			"byteLength":324,
			"byteOffset":3424,
			"target":34963
		}
	],
	"samplers":[
		{
			"magFilter":9728,
			"minFilter":9984
		}
	],
	"buffers":[
		{
			"byteLength":3748,
			"uri":"PeepHole.bin"
		}
	]
}
