{
	"asset":{
		"generator":"Khronos glTF Blender I/O v4.4.35",
		"version":"2.0"
	},
	"scene":0,
	"scenes":[
		{
			"name":"Scene",
			"nodes":[
				1
			]
		}
	],
	"nodes":[
		{
			"mesh":0,
			"name":"Switch-convcol",
			"rotation":[
				0.041875649243593216,
				0,
				0,
				0.9991228580474854
			],
			"translation":[
				0,
				0,
				0.05458664894104004
			]
		},
		{
			"children":[
				0
			],
			"mesh":1,
			"name":"SwitchBase"
		}
	],
	"animations":[
		{
			"channels":[
				{
					"sampler":0,
					"target":{
						"node":0,
						"path":"translation"
					}
				},
				{
					"sampler":1,
					"target":{
						"node":0,
						"path":"rotation"
					}
				},
				{
					"sampler":2,
					"target":{
						"node":0,
						"path":"scale"
					}
				}
			],
			"name":"SwitchOnOff",
			"samplers":[
				{
					"input":8,
					"interpolation":"STEP",
					"output":9
				},
				{
					"input":10,
					"interpolation":"LINEAR",
					"output":11
				},
				{
					"input":8,
					"interpolation":"STEP",
					"output":12
				}
			]
		}
	],
	"materials":[
		{
			"doubleSided":true,
			"name":"SD",
			"pbrMetallicRoughness":{
				"baseColorTexture":{
					"index":0
				},
				"metallicFactor":0
			}
		}
	],
	"meshes":[
		{
			"name":"Cube.276",
			"primitives":[
				{
					"attributes":{
						"POSITION":0,
						"NORMAL":1,
						"TEXCOORD_0":2
					},
					"indices":3,
					"material":0
				}
			]
		},
		{
			"name":"Cube.275",
			"primitives":[
				{
					"attributes":{
						"POSITION":4,
						"NORMAL":5,
						"TEXCOORD_0":6
					},
					"indices":7,
					"material":0
				}
			]
		}
	],
	"textures":[
		{
			"sampler":0,
			"source":0
		}
	],
	"images":[
		{
			"mimeType":"image/png",
			"name":"TestureAtlas1",
			"uri":"../../textures/maro_kit/TestureAtlas1.png"
		}
	],
	"accessors":[
		{
			"bufferView":0,
			"componentType":5126,
			"count":20,
			"max":[
				0.07521985471248627,
				0.07521981745958328,
				0.01574917696416378
			],
			"min":[
				-0.0752197653055191,
				-0.07521981745958328,
				-0.015749260783195496
			],
			"type":"VEC3"
		},
		{
			"bufferView":1,
			"componentType":5126,
			"count":20,
			"type":"VEC3"
		},
		{
			"bufferView":2,
			"componentType":5126,
			"count":20,
			"type":"VEC2"
		},
		{
			"bufferView":3,
			"componentType":5123,
			"count":30,
			"type":"SCALAR"
		},
		{
			"bufferView":4,
			"componentType":5126,
			"count":24,
			"max":[
				0.09674425423145294,
				0.09674414992332458,
				0.054070159792900085
			],
			"min":[
				-0.09674419462680817,
				-0.09674431383609772,
				4.470348358154297e-08
			],
			"type":"VEC3"
		},
		{
			"bufferView":5,
			"componentType":5126,
			"count":24,
			"type":"VEC3"
		},
		{
			"bufferView":6,
			"componentType":5126,
			"count":24,
			"type":"VEC2"
		},
		{
			"bufferView":7,
			"componentType":5123,
			"count":48,
			"type":"SCALAR"
		},
		{
			"bufferView":8,
			"componentType":5126,
			"count":2,
			"max":[
				0.20833333333333334
			],
			"min":[
				0
			],
			"type":"SCALAR"
		},
		{
			"bufferView":9,
			"componentType":5126,
			"count":2,
			"type":"VEC3"
		},
		{
			"bufferView":10,
			"componentType":5126,
			"count":6,
			"max":[
				0.20833333333333334
			],
			"min":[
				0
			],
			"type":"SCALAR"
		},
		{
			"bufferView":11,
			"componentType":5126,
			"count":6,
			"type":"VEC4"
		},
		{
			"bufferView":12,
			"componentType":5126,
			"count":2,
			"type":"VEC3"
		}
	],
	"bufferViews":[
		{
			"buffer":0,
			"byteLength":240,
			"byteOffset":0,
			"target":34962
		},
		{
			"buffer":0,
			"byteLength":240,
			"byteOffset":240,
			"target":34962
		},
		{
			"buffer":0,
			"byteLength":160,
			"byteOffset":480,
			"target":34962
		},
		{
			"buffer":0,
			"byteLength":60,
			"byteOffset":640,
			"target":34963
		},
		{
			"buffer":0,
			"byteLength":288,
			"byteOffset":700,
			"target":34962
		},
		{
			"buffer":0,
			"byteLength":288,
			"byteOffset":988,
			"target":34962
		},
		{
			"buffer":0,
			"byteLength":192,
			"byteOffset":1276,
			"target":34962
		},
		{
			"buffer":0,
			"byteLength":96,
			"byteOffset":1468,
			"target":34963
		},
		{
			"buffer":0,
			"byteLength":8,
			"byteOffset":1564
		},
		{
			"buffer":0,
			"byteLength":24,
			"byteOffset":1572
		},
		{
			"buffer":0,
			"byteLength":24,
			"byteOffset":1596
		},
		{
			"buffer":0,
			"byteLength":96,
			"byteOffset":1620
		},
		{
			"buffer":0,
			"byteLength":24,
			"byteOffset":1716
		}
	],
	"samplers":[
		{
			"magFilter":9728,
			"minFilter":9984
		}
	],
	"buffers":[
		{
			"byteLength":1740,
			"uri":"Switch.bin"
		}
	]
}
