{
	"asset":{
		"generator":"Khronos glTF Blender I/O v4.4.26",
		"version":"2.0"
	},
	"scene":0,
	"scenes":[
		{
			"name":"Scene",
			"nodes":[
				0
			]
		}
	],
	"nodes":[
		{
			"mesh":0,
			"name":"Cube.002"
		}
	],
	"materials":[
		{
			"doubleSided":true,
			"name":"SD",
			"pbrMetallicRoughness":{
				"baseColorTexture":{
					"index":0
				},
				"metallicFactor":0
			}
		}
	],
	"meshes":[
		{
			"name":"Cube.015",
			"primitives":[
				{
					"attributes":{
						"POSITION":0,
						"NORMAL":1,
						"TEXCOORD_0":2
					},
					"indices":3,
					"material":0
				}
			]
		}
	],
	"textures":[
		{
			"sampler":0,
			"source":0
		}
	],
	"images":[
		{
			"mimeType":"image/png",
			"name":"TestureAtlas1",
			"uri":"../../textures/maro_kit/TestureAtlas1.png"
		}
	],
	"accessors":[
		{
			"bufferView":0,
			"componentType":5126,
			"count":1144,
			"max":[
				0.3262957036495209,
				0.6652002930641174,
				0.3233472406864166
			],
			"min":[
				-0.317002534866333,
				0,
				-0.3323257863521576
			],
			"type":"VEC3"
		},
		{
			"bufferView":1,
			"componentType":5126,
			"count":1144,
			"type":"VEC3"
		},
		{
			"bufferView":2,
			"componentType":5126,
			"count":1144,
			"type":"VEC2"
		},
		{
			"bufferView":3,
			"componentType":5123,
			"count":1812,
			"type":"SCALAR"
		}
	],
	"bufferViews":[
		{
			"buffer":0,
			"byteLength":13728,
			"byteOffset":0,
			"target":34962
		},
		{
			"buffer":0,
			"byteLength":13728,
			"byteOffset":13728,
			"target":34962
		},
		{
			"buffer":0,
			"byteLength":9152,
			"byteOffset":27456,
			"target":34962
		},
		{
			"buffer":0,
			"byteLength":3624,
			"byteOffset":36608,
			"target":34963
		}
	],
	"samplers":[
		{
			"magFilter":9728,
			"minFilter":9984
		}
	],
	"buffers":[
		{
			"byteLength":40232,
			"uri":"TimberPile.bin"
		}
	]
}
