{
	"asset":{
		"generator":"Khronos glTF Blender I/O v4.4.35",
		"version":"2.0"
	},
	"scene":0,
	"scenes":[
		{
			"name":"Scene",
			"nodes":[
				2
			]
		}
	],
	"nodes":[
		{
			"mesh":0,
			"name":"WindowL-convcol",
			"translation":[
				0.4809877872467041,
				0.8574317097663879,
				-0.024392127990722656
			]
		},
		{
			"mesh":1,
			"name":"WindowR-convcol",
			"translation":[
				-0.4809877872467041,
				0.8574317097663879,
				-0.024392127990722656
			]
		},
		{
			"children":[
				0,
				1
			],
			"mesh":2,
			"name":"WindowBase"
		}
	],
	"materials":[
		{
			"doubleSided":true,
			"name":"SD",
			"pbrMetallicRoughness":{
				"baseColorTexture":{
					"index":0
				},
				"metallicFactor":0
			}
		},
		{
			"alphaMode":"BLEND",
			"doubleSided":true,
			"name":"SD Transparent",
			"pbrMetallicRoughness":{
				"baseColorFactor":[
					1,
					1,
					1,
					0.8094487190246582
				],
				"baseColorTexture":{
					"index":1
				},
				"metallicFactor":0,
				"roughnessFactor":0.23228347301483154
			}
		}
	],
	"meshes":[
		{
			"name":"Cube.054",
			"primitives":[
				{
					"attributes":{
						"POSITION":0,
						"NORMAL":1,
						"TEXCOORD_0":2
					},
					"indices":3,
					"material":0
				},
				{
					"attributes":{
						"POSITION":4,
						"NORMAL":5,
						"TEXCOORD_0":6
					},
					"indices":7,
					"material":1
				}
			]
		},
		{
			"name":"Cube.268",
			"primitives":[
				{
					"attributes":{
						"POSITION":8,
						"NORMAL":9,
						"TEXCOORD_0":10
					},
					"indices":11,
					"material":0
				},
				{
					"attributes":{
						"POSITION":12,
						"NORMAL":13,
						"TEXCOORD_0":14
					},
					"indices":15,
					"material":1
				}
			]
		},
		{
			"name":"Cube.050",
			"primitives":[
				{
					"attributes":{
						"POSITION":16,
						"NORMAL":17,
						"TEXCOORD_0":18
					},
					"indices":19,
					"material":0
				}
			]
		}
	],
	"textures":[
		{
			"sampler":0,
			"source":0
		},
		{
			"sampler":1,
			"source":0
		}
	],
	"images":[
		{
			"mimeType":"image/png",
			"name":"TestureAtlas1",
			"uri":"../../textures/maro_kit/TestureAtlas1.png"
		}
	],
	"accessors":[
		{
			"bufferView":0,
			"componentType":5126,
			"count":180,
			"max":[
				0,
				0.7968966364860535,
				0.03668203577399254
			],
			"min":[
				-0.4809877872467041,
				-0.796896755695343,
				-0.04689589887857437
			],
			"type":"VEC3"
		},
		{
			"bufferView":1,
			"componentType":5126,
			"count":180,
			"type":"VEC3"
		},
		{
			"bufferView":2,
			"componentType":5126,
			"count":180,
			"type":"VEC2"
		},
		{
			"bufferView":3,
			"componentType":5123,
			"count":282,
			"type":"SCALAR"
		},
		{
			"bufferView":4,
			"componentType":5126,
			"count":8,
			"max":[
				-0.06152909994125366,
				0.7097582221031189,
				0.01834101974964142
			],
			"min":[
				-0.4252859354019165,
				-0.7220591902732849,
				0.01834101974964142
			],
			"type":"VEC3"
		},
		{
			"bufferView":5,
			"componentType":5126,
			"count":8,
			"type":"VEC3"
		},
		{
			"bufferView":6,
			"componentType":5126,
			"count":8,
			"type":"VEC2"
		},
		{
			"bufferView":7,
			"componentType":5123,
			"count":12,
			"type":"SCALAR"
		},
		{
			"bufferView":8,
			"componentType":5126,
			"count":179,
			"max":[
				0.4809877872467041,
				0.7968966960906982,
				0.03668203577399254
			],
			"min":[
				0,
				-0.796896755695343,
				-0.04689589887857437
			],
			"type":"VEC3"
		},
		{
			"bufferView":9,
			"componentType":5126,
			"count":179,
			"type":"VEC3"
		},
		{
			"bufferView":10,
			"componentType":5126,
			"count":179,
			"type":"VEC2"
		},
		{
			"bufferView":11,
			"componentType":5123,
			"count":282,
			"type":"SCALAR"
		},
		{
			"bufferView":12,
			"componentType":5126,
			"count":8,
			"max":[
				0.4252859055995941,
				0.7097581624984741,
				0.01834101974964142
			],
			"min":[
				0.061529114842414856,
				-0.7220591902732849,
				0.01834101974964142
			],
			"type":"VEC3"
		},
		{
			"bufferView":13,
			"componentType":5126,
			"count":8,
			"type":"VEC3"
		},
		{
			"bufferView":14,
			"componentType":5126,
			"count":8,
			"type":"VEC2"
		},
		{
			"bufferView":15,
			"componentType":5123,
			"count":12,
			"type":"SCALAR"
		},
		{
			"bufferView":16,
			"componentType":5126,
			"count":64,
			"max":[
				0.5415174961090088,
				1.7121148109436035,
				0.03203463554382324
			],
			"min":[
				-0.5415174961090088,
				0,
				-0.03203439712524414
			],
			"type":"VEC3"
		},
		{
			"bufferView":17,
			"componentType":5126,
			"count":64,
			"type":"VEC3"
		},
		{
			"bufferView":18,
			"componentType":5126,
			"count":64,
			"type":"VEC2"
		},
		{
			"bufferView":19,
			"componentType":5123,
			"count":96,
			"type":"SCALAR"
		}
	],
	"bufferViews":[
		{
			"buffer":0,
			"byteLength":2160,
			"byteOffset":0,
			"target":34962
		},
		{
			"buffer":0,
			"byteLength":2160,
			"byteOffset":2160,
			"target":34962
		},
		{
			"buffer":0,
			"byteLength":1440,
			"byteOffset":4320,
			"target":34962
		},
		{
			"buffer":0,
			"byteLength":564,
			"byteOffset":5760,
			"target":34963
		},
		{
			"buffer":0,
			"byteLength":96,
			"byteOffset":6324,
			"target":34962
		},
		{
			"buffer":0,
			"byteLength":96,
			"byteOffset":6420,
			"target":34962
		},
		{
			"buffer":0,
			"byteLength":64,
			"byteOffset":6516,
			"target":34962
		},
		{
			"buffer":0,
			"byteLength":24,
			"byteOffset":6580,
			"target":34963
		},
		{
			"buffer":0,
			"byteLength":2148,
			"byteOffset":6604,
			"target":34962
		},
		{
			"buffer":0,
			"byteLength":2148,
			"byteOffset":8752,
			"target":34962
		},
		{
			"buffer":0,
			"byteLength":1432,
			"byteOffset":10900,
			"target":34962
		},
		{
			"buffer":0,
			"byteLength":564,
			"byteOffset":12332,
			"target":34963
		},
		{
			"buffer":0,
			"byteLength":96,
			"byteOffset":12896,
			"target":34962
		},
		{
			"buffer":0,
			"byteLength":96,
			"byteOffset":12992,
			"target":34962
		},
		{
			"buffer":0,
			"byteLength":64,
			"byteOffset":13088,
			"target":34962
		},
		{
			"buffer":0,
			"byteLength":24,
			"byteOffset":13152,
			"target":34963
		},
		{
			"buffer":0,
			"byteLength":768,
			"byteOffset":13176,
			"target":34962
		},
		{
			"buffer":0,
			"byteLength":768,
			"byteOffset":13944,
			"target":34962
		},
		{
			"buffer":0,
			"byteLength":512,
			"byteOffset":14712,
			"target":34962
		},
		{
			"buffer":0,
			"byteLength":192,
			"byteOffset":15224,
			"target":34963
		}
	],
	"samplers":[
		{
			"magFilter":9728,
			"minFilter":9984
		},
		{
			"magFilter":9729,
			"minFilter":9987
		}
	],
	"buffers":[
		{
			"byteLength":15416,
			"uri":"Window.bin"
		}
	]
}
