{
	"asset":{
		"generator":"Khronos glTF Blender I/O v4.4.35",
		"version":"2.0"
	},
	"scene":0,
	"scenes":[
		{
			"name":"Scene",
			"nodes":[
				2
			]
		}
	],
	"nodes":[
		{
			"mesh":0,
			"name":"WindowL",
			"translation":[
				0.4809877872467041,
				0.8574317097663879,
				-0.024392127990722656
			]
		},
		{
			"mesh":1,
			"name":"WindowR",
			"translation":[
				-0.4809877872467041,
				0.8574317097663879,
				-0.024392127990722656
			]
		},
		{
			"children":[
				0,
				1
			],
			"mesh":2,
			"name":"WindowBase"
		}
	],
	"materials":[
		{
			"doubleSided":true,
			"name":"SD",
			"pbrMetallicRoughness":{
				"baseColorTexture":{
					"index":0
				},
				"metallicFactor":0
			}
		}
	],
	"meshes":[
		{
			"name":"Cube.054",
			"primitives":[
				{
					"attributes":{
						"POSITION":0,
						"NORMAL":1,
						"TEXCOORD_0":2
					},
					"indices":3,
					"material":0
				}
			]
		},
		{
			"name":"Cube.268",
			"primitives":[
				{
					"attributes":{
						"POSITION":4,
						"NORMAL":5,
						"TEXCOORD_0":6
					},
					"indices":7,
					"material":0
				}
			]
		},
		{
			"name":"Cube.050",
			"primitives":[
				{
					"attributes":{
						"POSITION":8,
						"NORMAL":9,
						"TEXCOORD_0":10
					},
					"indices":11,
					"material":0
				}
			]
		}
	],
	"textures":[
		{
			"sampler":0,
			"source":0
		}
	],
	"images":[
		{
			"mimeType":"image/png",
			"name":"TestureAtlas1",
			"uri":"../../textures/maro_kit/TestureAtlas1.png"
		}
	],
	"accessors":[
		{
			"bufferView":0,
			"componentType":5126,
			"count":188,
			"max":[
				0,
				0.7968966364860535,
				0.03668203577399254
			],
			"min":[
				-0.4809877872467041,
				-0.796896755695343,
				-0.04689589887857437
			],
			"type":"VEC3"
		},
		{
			"bufferView":1,
			"componentType":5126,
			"count":188,
			"type":"VEC3"
		},
		{
			"bufferView":2,
			"componentType":5126,
			"count":188,
			"type":"VEC2"
		},
		{
			"bufferView":3,
			"componentType":5123,
			"count":294,
			"type":"SCALAR"
		},
		{
			"bufferView":4,
			"componentType":5126,
			"count":187,
			"max":[
				0.4809877872467041,
				0.7968966960906982,
				0.03668203577399254
			],
			"min":[
				0,
				-0.796896755695343,
				-0.04689589887857437
			],
			"type":"VEC3"
		},
		{
			"bufferView":5,
			"componentType":5126,
			"count":187,
			"type":"VEC3"
		},
		{
			"bufferView":6,
			"componentType":5126,
			"count":187,
			"type":"VEC2"
		},
		{
			"bufferView":7,
			"componentType":5123,
			"count":294,
			"type":"SCALAR"
		},
		{
			"bufferView":8,
			"componentType":5126,
			"count":64,
			"max":[
				0.5415174961090088,
				1.7121148109436035,
				0.03203463554382324
			],
			"min":[
				-0.5415174961090088,
				0,
				-0.03203439712524414
			],
			"type":"VEC3"
		},
		{
			"bufferView":9,
			"componentType":5126,
			"count":64,
			"type":"VEC3"
		},
		{
			"bufferView":10,
			"componentType":5126,
			"count":64,
			"type":"VEC2"
		},
		{
			"bufferView":11,
			"componentType":5123,
			"count":96,
			"type":"SCALAR"
		}
	],
	"bufferViews":[
		{
			"buffer":0,
			"byteLength":2256,
			"byteOffset":0,
			"target":34962
		},
		{
			"buffer":0,
			"byteLength":2256,
			"byteOffset":2256,
			"target":34962
		},
		{
			"buffer":0,
			"byteLength":1504,
			"byteOffset":4512,
			"target":34962
		},
		{
			"buffer":0,
			"byteLength":588,
			"byteOffset":6016,
			"target":34963
		},
		{
			"buffer":0,
			"byteLength":2244,
			"byteOffset":6604,
			"target":34962
		},
		{
			"buffer":0,
			"byteLength":2244,
			"byteOffset":8848,
			"target":34962
		},
		{
			"buffer":0,
			"byteLength":1496,
			"byteOffset":11092,
			"target":34962
		},
		{
			"buffer":0,
			"byteLength":588,
			"byteOffset":12588,
			"target":34963
		},
		{
			"buffer":0,
			"byteLength":768,
			"byteOffset":13176,
			"target":34962
		},
		{
			"buffer":0,
			"byteLength":768,
			"byteOffset":13944,
			"target":34962
		},
		{
			"buffer":0,
			"byteLength":512,
			"byteOffset":14712,
			"target":34962
		},
		{
			"buffer":0,
			"byteLength":192,
			"byteOffset":15224,
			"target":34963
		}
	],
	"samplers":[
		{
			"magFilter":9728,
			"minFilter":9984
		}
	],
	"buffers":[
		{
			"byteLength":15416,
			"uri":"Window.bin"
		}
	]
}
